<?xml version="1.0" encoding="UTF-8"?>
<svg version="1.1" xmlns="http://www.w3.org/2000/svg" width="1024" height="1024">
<path d="M0 0 C3.92711485 -0.00217114 7.85394102 -0.02033531 11.78100586 -0.03930664 C34.06168238 -0.09021257 56.10265559 1.20823372 78.16186523 4.37280273 C79.27327377 4.52945404 79.27327377 4.52945404 80.40713501 4.68927002 C105.8879739 8.30935885 131.06949162 13.54864432 155.66186523 21.18530273 C156.81009766 21.53931152 157.95833008 21.89332031 159.14135742 22.25805664 C184.71728452 30.23293968 209.70588284 40.1593276 233.66186523 52.18530273 C234.35441406 52.53028809 235.04696289 52.87527344 235.76049805 53.23071289 C263.71256697 67.256595 289.90149936 84.12553445 314.66186523 103.18530273 C315.59603271 103.90097412 315.59603271 103.90097412 316.54907227 104.63110352 C324.21880521 110.51932381 331.53847257 116.63880455 338.66186523 123.18530273 C339.94968705 124.31470202 341.24121945 125.43988773 342.53686523 126.56030273 C351.65455776 134.54278849 360.39259956 142.81688575 368.97436523 151.37280273 C370.24618652 152.6377356 370.24618652 152.6377356 371.54370117 153.92822266 C376.45722536 158.85383245 381.14095093 163.89910982 385.66186523 169.18530273 C386.70715118 170.37680283 387.75400076 171.56693318 388.80249023 172.75561523 C441.70955939 233.09958976 478.52910317 306.05571732 496.66186523 384.18530273 C496.88922363 385.14629883 497.11658203 386.10729492 497.35083008 387.09741211 C503.23975184 412.30976286 506.74134508 438.37903198 508.66186523 464.18530273 C508.71826172 464.85432617 508.7746582 465.52334961 508.83276367 466.21264648 C515.40169018 544.72880947 501.00795075 627.99144819 469.66186523 700.18530273 C469.32123047 700.97646484 468.9805957 701.76762695 468.62963867 702.58276367 C450.09228844 745.39642462 425.85442524 786.96919759 395.15795898 822.29077148 C392.84024837 824.97844529 390.62106331 827.72087778 388.41186523 830.49780273 C378.33412752 842.81308012 366.94941993 853.99113858 355.72436523 865.24780273 C355.18634277 865.78850403 354.64832031 866.32920532 354.09399414 866.8862915 C348.13099782 872.87180601 342.11595126 878.72415302 335.66186523 884.18530273 C334.69764648 885.03092773 333.73342773 885.87655273 332.73999023 886.74780273 C323.09150852 895.06362123 312.92394184 902.64708425 302.66186523 910.18530273 C302.00508789 910.66918457 301.34831055 911.15306641 300.67163086 911.65161133 C281.65871777 925.61325589 261.46075299 937.7207424 240.77856445 949.02270508 C238.88962221 950.06020715 237.01089186 951.11358799 235.13452148 952.17358398 C207.05955604 967.70646865 176.34840562 979.04113856 145.66186523 988.18530273 C144.16429687 988.63534668 144.16429687 988.63534668 142.63647461 989.09448242 C116.92996734 996.71337937 90.47260321 1001.55580736 63.84936523 1004.56030273 C63.14377472 1004.63993256 62.4381842 1004.71956238 61.71121216 1004.80160522 C44.09257999 1006.75244738 26.62621357 1007.39189757 8.91186523 1007.37280273 C7.87384766 1007.37219849 6.83583008 1007.37159424 5.76635742 1007.37097168 C-10.68471684 1007.34503758 -26.96723948 1006.94355962 -43.33813477 1005.18530273 C-44.52552246 1005.06171387 -45.71291016 1004.938125 -46.9362793 1004.81079102 C-132.0285268 995.66883188 -216.33407497 964.08627316 -285.33813477 913.18530273 C-285.89001465 912.77973145 -286.44189453 912.37416016 -287.01049805 911.95629883 C-290.47930218 909.39994333 -293.91227889 906.79879442 -297.33813477 904.18530273 C-298.37196289 903.40799805 -299.40579102 902.63069336 -300.47094727 901.82983398 C-312.51095311 892.73557371 -323.79205843 882.81911243 -334.84838867 872.56176758 C-336.39437336 871.13334056 -337.94890914 869.7147782 -339.50610352 868.29858398 C-346.74326523 861.71447481 -353.74561224 855.09689777 -360.13110352 847.67358398 C-362.4931824 845.01049682 -364.92243301 842.42134888 -367.36523438 839.83251953 C-373.65400084 833.16321997 -379.67076896 826.39746776 -385.33813477 819.18530273 C-386.37056958 817.89484432 -387.40313149 816.60448759 -388.43579102 815.31420898 C-425.51233806 768.65697993 -453.91311365 714.82908192 -472.33813477 658.18530273 C-472.66765137 657.1853125 -472.99716797 656.18532227 -473.33666992 655.1550293 C-485.04386691 619.4007682 -492.04848486 582.6349505 -495.33813477 545.18530273 C-495.43384766 544.18692383 -495.52956055 543.18854492 -495.62817383 542.15991211 C-496.66817597 529.98555012 -496.58193867 517.77038674 -496.58813477 505.56030273 C-496.58880951 504.36411316 -496.58948425 503.16792358 -496.59017944 501.93548584 C-496.54349115 449.62102938 -488.8905245 398.18287362 -473.33813477 348.18530273 C-472.99024902 347.06462402 -472.64236328 345.94394531 -472.28393555 344.78930664 C-463.61478903 317.18690284 -452.28011272 291.00658563 -439.33813477 265.18530273 C-438.88051758 264.26749023 -438.42290039 263.34967773 -437.95141602 262.40405273 C-426.36612152 239.30475786 -412.09997504 217.6381669 -396.33813477 197.18530273 C-395.9262793 196.64728027 -395.51442383 196.10925781 -395.09008789 195.55493164 C-387.85579841 186.12043909 -380.23551289 177.0704705 -372.33813477 168.18530273 C-371.46415039 167.19788086 -370.59016602 166.21045898 -369.68969727 165.19311523 C-362.72955716 157.49818027 -355.4125826 150.15605343 -348.08813477 142.81030273 C-347.56835052 142.28783966 -347.04856628 141.76537659 -346.51303101 141.2270813 C-340.63634592 135.32744539 -334.70353738 129.56281756 -328.33813477 124.18530273 C-327.28182877 123.27290851 -326.22582305 122.36016649 -325.17016602 121.44702148 C-318.291455 115.58276461 -311.2936044 109.94227536 -304.07446289 104.50073242 C-302.2628083 103.12823595 -300.46422816 101.73973137 -298.66625977 100.34936523 C-224.55845262 43.41368382 -133.00474822 9.94997068 -40.33813477 1.18530273 C-39.26619873 1.08145264 -38.1942627 0.97760254 -37.08984375 0.87060547 C-24.75271721 -0.13699955 -12.36946382 -0.00076237 0 0 Z " fill="#FEFEFE" transform="translate(504.338134765625,4.814697265625)"/>
<path d="M0 0 C3.92711485 -0.00217114 7.85394102 -0.02033531 11.78100586 -0.03930664 C34.06168238 -0.09021257 56.10265559 1.20823372 78.16186523 4.37280273 C79.27327377 4.52945404 79.27327377 4.52945404 80.40713501 4.68927002 C105.8879739 8.30935885 131.06949162 13.54864432 155.66186523 21.18530273 C156.81009766 21.53931152 157.95833008 21.89332031 159.14135742 22.25805664 C184.71728452 30.23293968 209.70588284 40.1593276 233.66186523 52.18530273 C234.35441406 52.53028809 235.04696289 52.87527344 235.76049805 53.23071289 C263.71256697 67.256595 289.90149936 84.12553445 314.66186523 103.18530273 C315.59603271 103.90097412 315.59603271 103.90097412 316.54907227 104.63110352 C324.21880521 110.51932381 331.53847257 116.63880455 338.66186523 123.18530273 C339.94968705 124.31470202 341.24121945 125.43988773 342.53686523 126.56030273 C351.65455776 134.54278849 360.39259956 142.81688575 368.97436523 151.37280273 C370.24618652 152.6377356 370.24618652 152.6377356 371.54370117 153.92822266 C376.45722536 158.85383245 381.14095093 163.89910982 385.66186523 169.18530273 C386.70715118 170.37680283 387.75400076 171.56693318 388.80249023 172.75561523 C441.70955939 233.09958976 478.52910317 306.05571732 496.66186523 384.18530273 C496.88922363 385.14629883 497.11658203 386.10729492 497.35083008 387.09741211 C503.23975184 412.30976286 506.74134508 438.37903198 508.66186523 464.18530273 C508.71826172 464.85432617 508.7746582 465.52334961 508.83276367 466.21264648 C515.40169018 544.72880947 501.00795075 627.99144819 469.66186523 700.18530273 C469.32123047 700.97646484 468.9805957 701.76762695 468.62963867 702.58276367 C450.09228844 745.39642462 425.85442524 786.96919759 395.15795898 822.29077148 C392.84024837 824.97844529 390.62106331 827.72087778 388.41186523 830.49780273 C378.33412752 842.81308012 366.94941993 853.99113858 355.72436523 865.24780273 C355.18634277 865.78850403 354.64832031 866.32920532 354.09399414 866.8862915 C348.13099782 872.87180601 342.11595126 878.72415302 335.66186523 884.18530273 C334.69764648 885.03092773 333.73342773 885.87655273 332.73999023 886.74780273 C323.09150852 895.06362123 312.92394184 902.64708425 302.66186523 910.18530273 C302.00508789 910.66918457 301.34831055 911.15306641 300.67163086 911.65161133 C281.65871777 925.61325589 261.46075299 937.7207424 240.77856445 949.02270508 C238.88962221 950.06020715 237.01089186 951.11358799 235.13452148 952.17358398 C207.05955604 967.70646865 176.34840562 979.04113856 145.66186523 988.18530273 C144.16429687 988.63534668 144.16429687 988.63534668 142.63647461 989.09448242 C116.92996734 996.71337937 90.47260321 1001.55580736 63.84936523 1004.56030273 C63.14377472 1004.63993256 62.4381842 1004.71956238 61.71121216 1004.80160522 C44.09257999 1006.75244738 26.62621357 1007.39189757 8.91186523 1007.37280273 C7.87384766 1007.37219849 6.83583008 1007.37159424 5.76635742 1007.37097168 C-10.68471684 1007.34503758 -26.96723948 1006.94355962 -43.33813477 1005.18530273 C-44.52552246 1005.06171387 -45.71291016 1004.938125 -46.9362793 1004.81079102 C-132.0285268 995.66883188 -216.33407497 964.08627316 -285.33813477 913.18530273 C-285.89001465 912.77973145 -286.44189453 912.37416016 -287.01049805 911.95629883 C-290.47930218 909.39994333 -293.91227889 906.79879442 -297.33813477 904.18530273 C-298.37196289 903.40799805 -299.40579102 902.63069336 -300.47094727 901.82983398 C-312.51095311 892.73557371 -323.79205843 882.81911243 -334.84838867 872.56176758 C-336.39437336 871.13334056 -337.94890914 869.7147782 -339.50610352 868.29858398 C-346.74326523 861.71447481 -353.74561224 855.09689777 -360.13110352 847.67358398 C-362.4931824 845.01049682 -364.92243301 842.42134888 -367.36523438 839.83251953 C-373.65400084 833.16321997 -379.67076896 826.39746776 -385.33813477 819.18530273 C-386.37056958 817.89484432 -387.40313149 816.60448759 -388.43579102 815.31420898 C-425.51233806 768.65697993 -453.91311365 714.82908192 -472.33813477 658.18530273 C-472.66765137 657.1853125 -472.99716797 656.18532227 -473.33666992 655.1550293 C-485.04386691 619.4007682 -492.04848486 582.6349505 -495.33813477 545.18530273 C-495.43384766 544.18692383 -495.52956055 543.18854492 -495.62817383 542.15991211 C-496.66817597 529.98555012 -496.58193867 517.77038674 -496.58813477 505.56030273 C-496.58880951 504.36411316 -496.58948425 503.16792358 -496.59017944 501.93548584 C-496.54349115 449.62102938 -488.8905245 398.18287362 -473.33813477 348.18530273 C-472.99024902 347.06462402 -472.64236328 345.94394531 -472.28393555 344.78930664 C-463.61478903 317.18690284 -452.28011272 291.00658563 -439.33813477 265.18530273 C-438.88051758 264.26749023 -438.42290039 263.34967773 -437.95141602 262.40405273 C-426.36612152 239.30475786 -412.09997504 217.6381669 -396.33813477 197.18530273 C-395.9262793 196.64728027 -395.51442383 196.10925781 -395.09008789 195.55493164 C-387.85579841 186.12043909 -380.23551289 177.0704705 -372.33813477 168.18530273 C-371.46415039 167.19788086 -370.59016602 166.21045898 -369.68969727 165.19311523 C-362.72955716 157.49818027 -355.4125826 150.15605343 -348.08813477 142.81030273 C-347.56835052 142.28783966 -347.04856628 141.76537659 -346.51303101 141.2270813 C-340.63634592 135.32744539 -334.70353738 129.56281756 -328.33813477 124.18530273 C-327.28182877 123.27290851 -326.22582305 122.36016649 -325.17016602 121.44702148 C-318.291455 115.58276461 -311.2936044 109.94227536 -304.07446289 104.50073242 C-302.2628083 103.12823595 -300.46422816 101.73973137 -298.66625977 100.34936523 C-224.55845262 43.41368382 -133.00474822 9.94997068 -40.33813477 1.18530273 C-39.26619873 1.08145264 -38.1942627 0.97760254 -37.08984375 0.87060547 C-24.75271721 -0.13699955 -12.36946382 -0.00076237 0 0 Z M-148.33813477 171.18530273 C-149.33949463 171.66217529 -149.33949463 171.66217529 -150.36108398 172.14868164 C-181.83161387 187.25913582 -211.22417776 206.29669311 -236.93188477 229.98999023 C-238.94794078 231.82931406 -240.99401344 233.61487844 -243.06079102 235.39624023 C-247.64482886 239.39939837 -251.97556366 243.63064929 -256.27563477 247.93530273 C-257.06905273 248.72952637 -257.8624707 249.52375 -258.67993164 250.34204102 C-264.31131725 256.03252141 -269.41293866 261.87368332 -274.33813477 268.18530273 C-275.91825284 270.0422102 -277.50178343 271.89621749 -279.08813477 273.74780273 C-322.25791407 325.65829469 -347.18549866 389.81883037 -356.58813477 456.18530273 C-356.75144287 457.32902344 -356.91475098 458.47274414 -357.08300781 459.65112305 C-369.28413602 550.42179662 -344.76957951 646.63592069 -290.33813477 720.18530273 C-289.90259277 720.7739209 -289.46705078 721.36253906 -289.01831055 721.96899414 C-272.05556385 744.73598711 -252.36167954 767.791105 -229.87329102 785.20483398 C-227.480236 787.07429299 -225.20278043 789.04228896 -222.92431641 791.04858398 C-214.9818001 797.99232612 -206.37374487 803.83589342 -197.59838867 809.67016602 C-195.59164175 811.01536707 -193.60741315 812.38581654 -191.63110352 813.77514648 C-148.425836 843.90330517 -95.39404236 862.3578944 -43.33813477 869.18530273 C-41.69071289 869.40742432 -41.69071289 869.40742432 -40.01000977 869.6340332 C51.3226679 881.5241758 143.49742866 857.86777193 227.53686523 798.06030273 C242.2982551 786.47944047 256.03028616 773.89060306 269.34936523 760.68530273 C270.22850586 759.81921387 271.10764648 758.953125 272.01342773 758.06079102 C277.99948514 752.08261 283.39238171 745.79791172 288.66186523 739.18530273 C289.63855432 738.01157434 290.6184549 736.84050138 291.60327148 735.67358398 C306.01559258 718.33882447 318.01236788 699.01681761 328.66186523 679.18530273 C329.12399414 678.3282373 329.58612305 677.47117187 330.06225586 676.58813477 C357.36959339 625.40119892 371.95790637 566.01845023 371.79223633 508.03393555 C371.78688551 505.81869618 371.79221837 503.60366097 371.79858398 501.38842773 C371.85780646 402.88103305 330.9820999 310.69723498 261.91186523 241.31030273 C261.21512695 240.6088916 260.51838867 239.90748047 259.80053711 239.18481445 C200.42728982 179.99447053 118.55193762 146.00753091 35.66186523 139.18530273 C34.95868164 139.12600586 34.25549805 139.06670898 33.53100586 139.00561523 C-28.45996496 134.02260897 -92.10987171 144.34144872 -148.33813477 171.18530273 Z " fill="#01A0FE" transform="translate(504.338134765625,4.814697265625)"/>
<path d="M0 0 C1.08539062 -0.01611328 2.17078125 -0.03222656 3.2890625 -0.04882812 C13.90669434 -0.05516323 23.57079345 2.01126096 33 6.9375 C34.00945679 7.45473633 34.00945679 7.45473633 35.03930664 7.98242188 C41.56812762 11.43307142 47.3069899 15.60161737 53 20.3125 C53.79921875 20.95960938 54.5984375 21.60671875 55.421875 22.2734375 C60.48511827 26.55100509 64.65125103 31.2868763 68.7578125 36.48046875 C70.19918608 38.301019 71.67118446 40.09795421 73.1796875 41.86328125 C79.96643912 49.82141171 85.52867221 58.42488894 91 67.3125 C91.39719238 67.94752441 91.79438477 68.58254883 92.20361328 69.23681641 C99.82479922 81.52894686 105.00466244 94.7786904 110 108.3125 C110.37624512 109.33118164 110.75249023 110.34986328 111.14013672 111.39941406 C123.13881887 144.44479123 130.64793683 179.15135038 138.546875 213.35614014 C139.2124592 216.22978916 139.8879864 219.10109208 140.5625 221.97265625 C141.58231234 226.33536899 142.56619156 230.70419871 143.51220703 235.08349609 C143.82795329 236.52632059 144.15380792 237.96698555 144.49169922 239.40478516 C150.51649342 265.13917442 149.17173756 295.07003326 136.3125 318.5 C128.64755381 330.53377048 116.07165054 341.04441993 102 344.3125 C100.83597656 344.58320312 100.83597656 344.58320312 99.6484375 344.859375 C83.51695963 347.61933287 68.75368528 342.69715097 55.53125 333.6171875 C36.80549011 319.69770598 33.03403563 298.8655572 29.78271484 277.05249023 C28.37848175 267.951697 26.45903427 259.00765364 24.47793579 250.02029419 C20.76400566 233.13008069 18.28737013 216.5794361 17 199.3125 C16.91081299 198.24894287 16.82162598 197.18538574 16.72973633 196.08959961 C16.18696353 189.51963312 15.84730853 182.97070594 15.65917969 176.38134766 C14.84708932 147.978692 10.21612847 126.5583787 -11 106.3125 C-17.79796532 100.12025082 -25.33602756 95.3298799 -33.3125 90.8125 C-34.05322754 90.39073486 -34.79395508 89.96896973 -35.55712891 89.53442383 C-43.51432596 85.19065284 -51.90924427 82.86599052 -61 84.3125 C-70.4495713 87.21968581 -79.37527935 92.0387991 -87 98.3125 C-87.58394531 98.77914062 -88.16789063 99.24578125 -88.76953125 99.7265625 C-90.48478111 101.93732899 -90.21449075 103.19545936 -89.875 105.9375 C-89.42451624 109.43001456 -88.66304147 112.51702484 -87.4375 115.8125 C-85.47205054 121.35682758 -84.64406881 126.91965885 -86.87890625 132.51171875 C-96.29027884 148.81855244 -118.70813494 156.18475922 -135.80126953 160.86499023 C-145.36216836 163.32344453 -154.55021572 164.85065508 -164.4375 164.875 C-165.35337891 164.87741699 -166.26925781 164.87983398 -167.21289062 164.88232422 C-182.72648127 164.49761909 -193.81351006 157.13203942 -204.42260742 146.36499023 C-212.07876465 138.29023628 -218.87557082 128.78918652 -219.4375 117.375 C-219.17251236 109.53377488 -215.64324622 102.71650635 -210 97.3125 C-191.06150177 80.58155677 -168.84258853 67.49603312 -146.93359375 55.12109375 C-142.68146939 52.71424628 -138.48657432 50.22666728 -134.3125 47.6875 C-120.89979675 39.56537323 -107.13939026 32.08919318 -93 25.3125 C-92.27184082 24.95833008 -91.54368164 24.60416016 -90.79345703 24.23925781 C-69.92462299 14.1542124 -47.74516911 6.79641932 -25 2.3125 C-24.07429199 2.12776123 -23.14858398 1.94302246 -22.19482422 1.75268555 C-14.75891128 0.38137308 -7.55250436 -0.0224243 0 0 Z " fill="#FEF400" transform="translate(605,398.6875)"/>
<path d="M0 0 C0.98935547 -0.01224609 1.97871094 -0.02449219 2.99804688 -0.03710938 C10.61077372 -0.05226411 18.18965902 0.32806813 24.4375 5.1875 C27.7946881 9.55298063 29.32173411 13.57911438 30.3671875 18.91015625 C30.52278137 19.64439316 30.67837524 20.37863007 30.83868408 21.13511658 C31.16934849 22.69827519 31.4946651 24.26257329 31.81500244 25.82788086 C32.65218903 29.90381174 33.53802348 33.96913314 34.421875 38.03515625 C34.68105209 39.23224716 34.68105209 39.23224716 34.94546509 40.45352173 C39.753639 62.50905867 45.06574305 81.99104681 64.59667969 95.38745117 C69.52641285 98.51111245 74.71807975 101.08727973 79.9375 103.6875 C92.06159247 109.72750243 104.50977334 116.00425656 111.4375 128.1875 C116.6910505 145.84997444 113.03914564 163.76021467 104.55078125 179.828125 C95.40800629 194.36192623 81.94303159 204.51933737 65.375 209 C38.458545 214.52295185 8.24252903 205.5105827 -14.3671875 190.765625 C-31.34760768 179.23941229 -42.52966784 164.4330347 -49.5625 145.1875 C-50.01367188 143.96804688 -50.46484375 142.74859375 -50.9296875 141.4921875 C-63.1097495 106.82073551 -62.73650363 55.6136217 -46.90917969 22.13891602 C-42.11795482 12.51400914 -36.70366052 6.22726789 -26.44921875 2.3984375 C-17.8458188 0.08810565 -8.84365655 0.00578395 0 0 Z " fill="#0071FE" transform="translate(485.5625,579.8125)"/>
<path d="M0 0 C1.2684375 1.2375 1.2684375 1.2375 2.5625 2.5 C3.07425781 2.96664062 3.58601563 3.43328125 4.11328125 3.9140625 C21.01423998 20.93157956 29.2283205 49.24430445 37.77124023 71.01831055 C40.39924311 77.69229591 43.18747249 84.27572191 46.07519531 90.84130859 C82.64658749 174.22730898 82.64658749 174.22730898 73.83203125 205.0546875 C71.93987481 209.27149328 69.47102351 211.95945972 65.5625 214.5 C64.6653125 215.11875 64.6653125 215.11875 63.75 215.75 C59.31269314 217.27136235 55.24332532 217.31798406 51.07421875 215.2890625 C46.32446079 211.90587565 43.11329606 207.07113975 39.5625 202.5 C38.84964844 201.613125 38.13679688 200.72625 37.40234375 199.8125 C24.89371864 183.83051801 15.70746317 165.53017714 6.5625 147.5 C6.07281738 146.54109863 5.58313477 145.58219727 5.07861328 144.59423828 C-0.8134676 133.0451381 -6.45413524 121.40267696 -11.875 109.625 C-20.41791842 91.07790806 -29.40841163 72.78351025 -39.39282227 54.96533203 C-51.58516397 33.07614463 -51.58516397 33.07614463 -48.859375 22.19140625 C-44.10954221 9.73389025 -31.80621884 4.6223104 -20.4375 -0.5 C-14.0740495 -2.62115017 -6.14438575 -2.68118651 0 0 Z " fill="#00CD00" transform="translate(375.4375,207.5)"/>
<path d="M0 0 C0.97839844 -0.02835937 1.95679688 -0.05671875 2.96484375 -0.0859375 C10.14459789 0.9824244 14.93592321 5.75409312 19.8125 10.75 C20.41811768 11.36431885 21.02373535 11.9786377 21.64770508 12.61157227 C27.65232317 18.80889413 32.9249545 25.4545792 38.0625 32.375 C38.5172168 32.97957031 38.97193359 33.58414063 39.44042969 34.20703125 C120.16876339 141.54351413 120.16876339 141.54351413 116.0625 184.375 C114.57803426 190.16116574 111.3555112 194.75311403 106.5 198.1875 C101.5128117 199.91034687 97.25342022 200.61294303 92.0625 199.375 C88.2603209 196.78994906 85.25223207 193.66271019 82.0625 190.375 C80.3970557 189.04014014 78.73048886 187.70667891 77.0625 186.375 C76.00614771 185.2618268 74.98372436 184.11534596 74 182.9375 C71.31978829 179.79598824 68.56598018 176.74661364 65.74658203 173.73095703 C59.9082618 167.48305843 54.41234572 161.0492375 49.0625 154.375 C48.05613568 153.14724903 47.04822279 151.92076634 46.0390625 150.6953125 C39.02014752 142.1558262 32.27605108 133.45502051 25.69726562 124.57324219 C23.91713663 122.17953229 22.12397722 119.79599723 20.328125 117.4140625 C13.97254367 108.98211115 7.66947574 100.52566658 1.5703125 91.90625 C-0.77750196 88.58946626 -3.16095173 85.29929208 -5.5480957 82.01074219 C-7.76812978 78.94931024 -9.97845529 75.88096857 -12.18603516 72.81054688 C-13.38452493 71.14395447 -14.584807 69.47864989 -15.78662109 67.81445312 C-35.12346839 40.97472841 -35.12346839 40.97472841 -34.4609375 30.04296875 C-32.15378992 18.2834031 -24.038393 11.20638721 -14.97265625 4.328125 C-10.09794407 1.19124458 -5.7646344 0.07575078 0 0 Z " fill="#00CE00" transform="translate(260.9375,285.625)"/>
<path d="M0 0 C16.36915525 12.57588545 17.85084178 35.36396931 20.42651367 54.39448547 C21.221173 60.46546703 21.98478111 66.53998953 22.7376709 72.61627197 C23.08073237 75.36586836 23.43296079 78.11425846 23.78505707 80.86271 C29.3056798 124.03461283 29.3056798 124.03461283 29.12109375 144.5 C29.10985474 146.24748535 29.10985474 146.24748535 29.09838867 148.03027344 C28.90708026 163.71542585 27.59024585 178.97500919 24.55859375 194.375 C24.37014893 195.3640332 24.1817041 196.35306641 23.98754883 197.37207031 C22.70145443 203.41780434 20.9157959 208.65630656 16.87109375 213.4375 C12.02744784 216.41820518 6.49350806 217.69906646 0.87109375 216.4375 C-8.94994827 209.78421672 -12.58208545 195.24646965 -16.13696289 184.38085938 C-16.81109469 182.32866943 -17.50879512 180.28561198 -18.20898438 178.2421875 C-24.25489946 160.25728316 -26.79781112 141.66907193 -29.3927002 122.9336853 C-32.03519767 103.93215138 -34.9164668 84.99517037 -38.37890625 66.125 C-38.53935425 65.24513428 -38.69980225 64.36526855 -38.8651123 63.45874023 C-40.64815205 53.72713808 -42.57517482 44.04599667 -44.85357666 34.41691589 C-46.7558338 26.20284753 -47.97591911 17.75123917 -43.5234375 10.18359375 C-34.5899317 -1.00205636 -12.90113029 -7.72458529 0 0 Z " fill="#01CE01" transform="translate(503.12890625,169.5625)"/>
<path d="M0 0 C1.04917603 -0.0033284 2.09835205 -0.0066568 3.17932129 -0.01008606 C5.38777229 -0.01511607 7.59623078 -0.01749561 9.8046875 -0.01733398 C13.11992491 -0.01950744 16.43482179 -0.03767 19.75 -0.05664062 C35.83696082 -0.0998809 51.82540376 0.49051464 67.59375 3.98046875 C68.76502441 4.23594482 68.76502441 4.23594482 69.95996094 4.49658203 C79.39448224 6.66133898 89.22942799 9.47982626 95.65625 17.16796875 C97.2907799 20.60454469 98.21358723 24.09935037 99.09375 27.79296875 C99.34108887 28.77338135 99.58842773 29.75379395 99.84326172 30.76391602 C103.82650618 47.35527 103.82650618 47.35527 100.15625 55.04296875 C92.6169956 65.63382613 78.60469697 68.98941578 66.42578125 71.17578125 C54.38074773 73.11964511 42.32265918 74.32835292 30.1171875 74.30078125 C28.66948471 74.30221634 28.66948471 74.30221634 27.1925354 74.30368042 C25.1640008 74.30435585 23.13546395 74.3025464 21.10693359 74.29833984 C18.05951882 74.29301812 15.01225381 74.29828848 11.96484375 74.3046875 C-29.25068317 74.3199813 -29.25068317 74.3199813 -37.34375 67.16796875 C-44.99625474 55.79853313 -46.15476632 37.76204332 -43.6875 24.69140625 C-41.50838071 16.66999301 -38.32386895 8.08013784 -30.83203125 3.69921875 C-21.0924495 -0.19105642 -10.35175713 0.01178712 0 0 Z " fill="#FE0101" transform="translate(264.34375,591.83203125)"/>
<path d="M0 0 C8.56145261 6.09273829 10.2611573 14.08139428 12 24 C18.66170036 63.88744813 13.73435059 107.01943679 0.875 145.125 C0.65803467 145.78693359 0.44106934 146.44886719 0.2175293 147.13085938 C-1.32324158 151.34854231 -3.18840592 153.6379667 -7 156 C-9.93765707 156.68330119 -11.91725257 156.34805213 -15 156 C-26.96938324 146.38478456 -26.41770005 114.90369023 -28 101 C-30.08547091 81.56715101 -31.34480478 62.05909982 -32.35400391 42.54443359 C-32.69200842 36.04847715 -33.09428002 29.58528375 -33.79052734 23.11694336 C-34.57753624 15.16338371 -35.3442367 6.98180898 -31 0 C-22.71727212 -7.76505739 -9.28619268 -3.99035335 0 0 Z " fill="#01CD01" transform="translate(616,205)"/>
<path d="M0 0 C1.58022963 1.58022963 1.23112153 3.25037038 1.34130859 5.44604492 C1.39161224 6.39601852 1.44191589 7.34599213 1.4937439 8.32475281 C1.54479279 9.36613907 1.59584167 10.40752533 1.6484375 11.48046875 C1.76799416 13.70118454 1.88779458 15.92188722 2.0078125 18.14257812 C2.19099779 21.63012568 2.37149352 25.11776395 2.546875 28.60571289 C3.2379952 42.19937974 4.2661391 55.59328814 6.30322266 69.0559082 C7.09378188 74.35117731 7.56530472 79.66521508 8 85 C5.60743751 85.70121643 3.21209511 86.38614901 0.8125 87.0625 C0.13896484 87.26166016 -0.53457031 87.46082031 -1.22851562 87.66601562 C-5.17416316 88.76309811 -8.05551294 89.21781251 -12 88 C-12.66 86.02 -13.32 84.04 -14 82 C-14.40089844 82.47050781 -14.80179687 82.94101563 -15.21484375 83.42578125 C-20.9685052 89.72741046 -26.50844693 92.01621365 -35 92.4375 C-42.10986762 92.17294679 -47.62992853 89.56868879 -52.8125 84.75 C-60.52903283 76.35469807 -62.49684095 66.12229578 -62.2421875 54.98828125 C-61.53221408 46.22812531 -58.70840698 39.79420949 -52 34 C-45.41037856 29.53283673 -39.08984649 26.94420647 -31 28 C-27.56417242 29.12080415 -24.28300599 30.49304643 -21 32 C-20.505 31.505 -20.505 31.505 -20 31 C-20.12480098 29.51180002 -20.32590349 28.02987214 -20.55859375 26.5546875 C-20.76645508 25.18570313 -20.76645508 25.18570313 -20.97851562 23.7890625 C-21.12998047 22.82742187 -21.28144531 21.86578125 -21.4375 20.875 C-22.38359429 14.85965814 -23.21111561 9.09701896 -23 3 C-6.92753392 -0.271668 -6.92753392 -0.271668 0 0 Z " fill="#FBFDFE" transform="translate(474,30)"/>
<path d="M0 0 C2.62722439 0.11285964 5.25363461 0.23208683 7.87988281 0.3659668 C8.78738281 0.40141602 9.69488281 0.43686523 10.62988281 0.47338867 C11.51160156 0.51657227 12.39332031 0.55975586 13.30175781 0.60424805 C14.10709961 0.64203369 14.91244141 0.67981934 15.7421875 0.71875 C18.57683196 1.11612194 20.62905076 1.6345343 23.12988281 3.0534668 C24.18139648 5.3996582 24.18139648 5.3996582 24.79785156 8.4050293 C25.04631836 9.54746094 25.29478516 10.68989258 25.55078125 11.86694336 C25.80375977 13.12474609 26.05673828 14.38254883 26.31738281 15.6784668 C26.7478553 17.68595749 27.18716467 19.6913823 27.62728882 21.69677734 C27.94366452 23.13851034 28.25774727 24.58074809 28.56973267 26.0234375 C30.43793358 34.61094323 32.57165282 43.13129891 34.71426392 51.65374756 C35.36851999 54.25823326 36.01752453 56.86398375 36.66577148 59.4699707 C39.09156795 69.21678042 39.09156795 69.21678042 41.92675781 78.8503418 C43.0225314 82.34188183 43.42120081 85.36343877 43.12988281 89.0534668 C34.85025166 89.31771034 27.26972698 88.6039133 19.12988281 87.0534668 C18.13988281 82.7634668 17.14988281 78.4734668 16.12988281 74.0534668 C7.21988281 73.0634668 -1.69011719 72.0734668 -10.87011719 71.0534668 C-11.53011719 73.0334668 -12.19011719 75.0134668 -12.87011719 77.0534668 C-13.90527344 79.4050293 -13.90527344 79.4050293 -15.87011719 81.0534668 C-19.02616117 81.60008385 -22.11415823 81.51909521 -25.30761719 81.4284668 C-26.16677734 81.42717773 -27.0259375 81.42588867 -27.91113281 81.42456055 C-32.1739408 81.36503336 -35.1012611 81.19565148 -38.87011719 79.0534668 C-38.30707982 74.00421418 -36.60591403 69.90936814 -34.37011719 65.40893555 C-34.01554443 64.68088211 -33.66097168 63.95282867 -33.2956543 63.20271301 C-32.54269935 61.66037944 -31.78602391 60.11985733 -31.02587891 58.58105469 C-29.89428505 56.28989983 -28.77371957 53.9936415 -27.65527344 51.69604492 C-23.93923443 44.09381898 -20.11239385 36.56521128 -16.12011719 29.10424805 C-12.77815534 22.85726449 -9.6860509 16.55816976 -6.87011719 10.0534668 C-6.12203632 8.3442922 -5.37214153 6.63590996 -4.62011719 4.9284668 C-4.14832031 3.84178711 -4.14832031 3.84178711 -3.66699219 2.7331543 C-2.40292542 0.06869983 -2.40292542 0.06869983 0 0 Z " fill="#FCFDFE" transform="translate(410.8701171875,892.946533203125)"/>
<path d="M0 0 C5.96877877 3.4065713 9.91067703 8.71104368 12.5625 15 C12.80886612 17.70017269 12.65315666 20.28030006 12.5625 23 C16.48631734 19.74003091 20.24563046 16.35887225 23.8125 12.7109375 C24.3794458 12.13174561 24.9463916 11.55255371 25.53051758 10.95581055 C26.662187 9.79200512 27.7872433 8.6217263 28.9050293 7.44458008 C31.92050402 4.34479486 34.29616599 2.2426984 38.5625 1 C39.07039062 1.51949219 39.57828125 2.03898438 40.1015625 2.57421875 C44.09740094 6.6224371 48.12063614 10.44650891 52.5625 14 C51.71956037 18.67968256 48.86255375 20.63015385 45.3125 23.5 C44.0345962 24.56156445 42.75860106 25.62543009 41.484375 26.69140625 C40.83275391 27.23555176 40.18113281 27.77969727 39.50976562 28.34033203 C35.90328379 31.41416146 32.45625644 34.65876822 29.00292969 37.90234375 C26.52139348 40.22424897 24.01248575 42.4779455 21.3828125 44.62890625 C19.14151148 46.51321334 17.29661782 48.26499497 15.4375 50.5 C12.21788414 54.27892552 8.87966478 57.9275219 5.5 61.5625 C1.41821105 65.96075076 -2.58458098 70.39790228 -6.4375 75 C-11.1565991 74.53234153 -13.35582317 72.65065406 -16.75 69.4375 C-17.63300781 68.61121094 -18.51601563 67.78492188 -19.42578125 66.93359375 C-20.08964844 66.29550781 -20.75351562 65.65742188 -21.4375 65 C-19.5625 60.25 -19.5625 60.25 -18.4375 58 C-19.13875 57.92523438 -19.84 57.85046875 -20.5625 57.7734375 C-29.08405402 56.59246126 -33.95865399 53.7609146 -39.75 47.5 C-45.04776447 39.65146005 -45.61899384 32.17713008 -44.4375 23 C-41.96003695 13.96384249 -35.23228167 7.25240435 -27.64453125 2.10546875 C-18.67054433 -2.95647632 -9.60299401 -4.21840666 0 0 Z " fill="#FCFEFE" transform="translate(841.4375,192)"/>
<path d="M0 0 C6.41015011 4.17297295 10.82558818 9.6232571 13 17 C14.05671078 27.88657845 14.05671078 27.88657845 12 32 C12.72590332 31.76289307 13.45180664 31.52578613 14.19970703 31.28149414 C17.50671291 30.20406392 20.81581753 29.13322552 24.125 28.0625 C25.26710938 27.68931641 26.40921875 27.31613281 27.5859375 26.93164062 C28.69453125 26.57392578 29.803125 26.21621094 30.9453125 25.84765625 C31.96125488 25.51773682 32.97719727 25.18781738 34.02392578 24.84790039 C37.0057792 23.99835347 39.93458556 23.44962076 43 23 C43.79211929 24.89564426 44.58367576 26.79152371 45.375 28.6875 C45.81585937 29.74324219 46.25671875 30.79898438 46.7109375 31.88671875 C47.13632812 32.91410156 47.56171875 33.94148438 48 35 C48.38414062 35.87269531 48.76828125 36.74539063 49.1640625 37.64453125 C50 40 50 40 50 44 C49.09266113 44.23944336 48.18532227 44.47888672 47.25048828 44.72558594 C21.91127331 51.44325797 -2.83928692 58.71551248 -26.91796875 69.1875 C-29 70 -29 70 -31 70 C-32.03712685 67.61009899 -33.05468019 65.21473126 -34.0625 62.8125 C-34.35705078 62.13896484 -34.65160156 61.46542969 -34.95507812 60.77148438 C-36.58427391 56.84224748 -37.64973127 54.04665024 -36 50 C-35.01 49.34 -34.02 48.68 -33 48 C-33.51949219 47.6596875 -34.03898438 47.319375 -34.57421875 46.96875 C-39.6702654 43.42695048 -44.02815037 40.05185186 -46 34 C-46.85217917 26.68483366 -47.54384072 18.18940051 -43.4375 11.73046875 C-32.852768 -1.01147766 -15.64229858 -8.03641028 0 0 Z " fill="#FCFEFE" transform="translate(927,324)"/>
<path d="M0 0 C3.43842782 3.11821946 5.5828188 6.37713318 7.8125 10.4375 C8.75029297 12.10619141 8.75029297 12.10619141 9.70703125 13.80859375 C11.09615016 17.23732532 11.31399275 18.58718626 10 22 C9.13375 22.804375 8.2675 23.60875 7.375 24.4375 C6.199375 25.7059375 6.199375 25.7059375 5 27 C5.308334 32.35527475 7.37417198 37.33556905 9.25 42.3125 C9.53746094 43.13556641 9.82492188 43.95863281 10.12109375 44.80664062 C10.95020988 47.00253115 11.76705272 49.00253806 13 51 C16.31563706 52.45824166 19.26678908 52.03878953 22.8125 51.5625 C23.99779297 51.40974609 23.99779297 51.40974609 25.20703125 51.25390625 C25.79871094 51.17011719 26.39039063 51.08632813 27 51 C30.05308251 57.68770456 33 64.57538976 33 72 C18.81388349 75.77129183 3.98738575 76.42498576 -10.61035156 77.43261719 C-13.36585344 77.62436352 -16.12036339 77.8274931 -18.875 78.03125 C-30.60301697 78.86890953 -42.24379933 79.16734204 -54 79 C-55.90429688 73.97070312 -55.90429688 73.97070312 -57.80859375 68.94140625 C-58.7144826 66.15554277 -58.7144826 66.15554277 -60 65 C-59.86890755 58.37725053 -57.44227018 55.55147821 -52.9921875 51.125 C-52.37092987 50.48425537 -51.74967224 49.84351074 -51.10958862 49.18334961 C-49.08793129 47.10704104 -47.04526137 45.05303985 -45 43 C-43.62717395 41.60360717 -42.2551063 40.20646833 -40.88378906 38.80859375 C-37.36931835 35.23805036 -33.83203021 31.69116252 -30.28417969 28.15380859 C-28.10233092 25.97738731 -25.92597087 23.79557761 -23.75 21.61328125 C-22.33625848 20.20019963 -20.92220726 18.78742777 -19.5078125 17.375 C-18.87118683 16.7363501 -18.23456116 16.0977002 -17.5786438 15.43969727 C-12.02992865 9.91942682 -6.3092438 4.64451522 0 0 Z " fill="#FCFEFE" transform="translate(120,628)"/>
<path d="M0 0 C9.9294484 17.66883223 11.33968752 36.21710449 10 56 C9.89521982 57.99918609 9.79050379 59.99837865 9.69006348 61.99778748 C9.39707405 67.7195396 9.05465491 73.43862464 8.6328125 79.15234375 C8.55949707 80.16288818 8.48618164 81.17343262 8.41064453 82.21459961 C7.98028776 85.13370804 7.34667561 87.37484202 6 90 C3.55071931 91.66087318 1.30649327 92.99676172 -1.3125 94.3125 C-1.97701172 94.67150391 -2.64152344 95.03050781 -3.32617188 95.40039062 C-10.05807663 98.89618686 -10.05807663 98.89618686 -14 98 C-16.07295285 96.41113213 -17.79820127 94.89623327 -19.625 93.0625 C-20.69171424 92.03796849 -21.76076806 91.01586787 -22.83203125 89.99609375 C-23.36521973 89.48546387 -23.8984082 88.97483398 -24.44775391 88.44873047 C-26.64830279 86.39493099 -28.96571646 84.50874104 -31.3125 82.625 C-35.87113243 78.9409889 -40.3624998 75.18897446 -44.8125 71.375 C-45.43487549 70.8485791 -46.05725098 70.3221582 -46.69848633 69.77978516 C-55.05114769 62.58388733 -59.55506298 55.54366948 -63.9375 45.375 C-64.44345703 44.25609375 -64.94941406 43.1371875 -65.47070312 41.984375 C-65.94314453 40.90414062 -66.41558594 39.82390625 -66.90234375 38.7109375 C-67.33023193 37.73431152 -67.75812012 36.75768555 -68.19897461 35.75146484 C-69.10728445 32.6314856 -69.15964007 31.03021525 -68 28 C-66.29760742 26.68212891 -66.29760742 26.68212891 -64.10546875 25.7265625 C-63.31462891 25.37722656 -62.52378906 25.02789062 -61.70898438 24.66796875 C-60.87689453 24.32378906 -60.04480469 23.97960937 -59.1875 23.625 C-58.36701172 23.25761719 -57.54652344 22.89023438 -56.70117188 22.51171875 C-50.78410721 19.96829274 -50.78410721 19.96829274 -47.85668945 20.08666992 C-46 21 -46 21 -44.875 23.22143555 C-44.58625 24.183479 -44.2975 25.14552246 -44 26.13671875 C-43.67 27.18923828 -43.34 28.24175781 -43 29.32617188 C-42.67 30.43541016 -42.34 31.54464844 -42 32.6875 C-38.52500174 44.1644962 -35.19152389 50.58393661 -25.4375 57.6875 C-23.91394791 58.81449361 -22.39175841 59.94333213 -20.87109375 61.07421875 C-20.20005615 61.56494873 -19.52901855 62.05567871 -18.83764648 62.5612793 C-17.08145816 63.9362252 -15.53900109 65.38872291 -14 67 C-11.6241865 62.24837301 -12.34772553 55.36906414 -12.11279297 50.08251953 C-12.0213447 48.39409147 -11.86600192 46.70920833 -11.69140625 45.02734375 C-10.96439268 35.42779719 -15.69477216 26.13966903 -20.16210938 17.84130859 C-20.53658203 17.14473145 -20.91105469 16.4481543 -21.296875 15.73046875 C-21.82039551 14.79883911 -21.82039551 14.79883911 -22.35449219 13.84838867 C-23.19854994 11.4314593 -23.05185983 10.3285673 -22 8 C-20.18994141 6.70385742 -20.18994141 6.70385742 -17.8515625 5.60546875 C-17.01109375 5.20779297 -16.170625 4.81011719 -15.3046875 4.40039062 C-14.42039062 4.00013672 -13.53609375 3.59988281 -12.625 3.1875 C-11.7484375 2.76791016 -10.871875 2.34832031 -9.96875 1.91601562 C-3.39873712 -1.13291237 -3.39873712 -1.13291237 0 0 Z " fill="#FBFDFE" transform="translate(339,58)"/>
<path d="M0 0 C2.5419589 -0.05434116 5.08273682 -0.0938339 7.625 -0.125 C8.33785156 -0.14175781 9.05070312 -0.15851562 9.78515625 -0.17578125 C14.25245682 -0.21676566 17.80578755 0.25778868 22 2 C22.33 2.33 22.66 2.66 23 3 C22.90609443 5.40822348 22.75214075 7.78648798 22.5625 10.1875 C22.46942141 11.66263973 22.3783081 13.13790466 22.2890625 14.61328125 C22.12422769 17.26735229 21.91117228 19.89518605 21.6484375 22.54296875 C20.8682034 34.86777781 26.5720103 45.75982713 33 56 C34.82007082 52.75418468 36.62971385 49.50267099 38.4375 46.25 C38.95376953 45.32960938 39.47003906 44.40921875 40.00195312 43.4609375 C40.49501953 42.57148437 40.98808594 41.68203125 41.49609375 40.765625 C41.95169678 39.94868164 42.4072998 39.13173828 42.87670898 38.29003906 C44.97227019 34.01784516 45.15594402 30.25882992 45.28125 25.51953125 C45.31863281 24.27365234 45.35601562 23.02777344 45.39453125 21.74414062 C45.46515789 19.11133653 45.53546761 16.47852392 45.60546875 13.84570312 C45.64285156 12.60369141 45.68023437 11.36167969 45.71875 10.08203125 C45.74904297 8.93968018 45.77933594 7.7973291 45.81054688 6.62036133 C46 4 46 4 47 3 C54.54031533 1.85409842 62.38976001 1.56731077 70 2 C71.81052973 3.81052973 71.17340851 6.55250021 71.1953125 8.9921875 C71.18473877 23.93959723 70.46166941 36.42959084 62.50830078 49.51708984 C60.76803892 52.38184593 59.11699556 55.29060873 57.46484375 58.20703125 C43.73069255 82.26930745 43.73069255 82.26930745 41 85 C39.43827255 85.08685603 37.87270656 85.10702219 36.30859375 85.09765625 C35.36435547 85.09443359 34.42011719 85.09121094 33.44726562 85.08789062 C32.45404297 85.07951172 31.46082031 85.07113281 30.4375 85.0625 C29.44041016 85.05798828 28.44332031 85.05347656 27.41601562 85.04882812 C24.94395151 85.03700007 22.47200482 85.02051849 20 85 C15.0017092 75.40059544 10.62105304 65.65931548 6.54541016 55.63720703 C5.61081372 53.34013262 4.66732559 51.04685429 3.72265625 48.75390625 C3.11927915 47.28145991 2.51639548 45.80881126 1.9140625 44.3359375 C1.63495026 43.65679291 1.35583801 42.97764832 1.06826782 42.27792358 C-1.36471684 36.27892011 -2.16604778 31.5781432 -2.125 25.125 C-2.12234131 24.37919678 -2.11968262 23.63339355 -2.11694336 22.86499023 C-1.95794399 3.91588798 -1.95794399 3.91588798 0 0 Z " fill="#FCFDFE" transform="translate(465,898)"/>
<path d="M0 0 C3.8446914 2.63555012 3.8446914 2.63555012 5.58984375 4.08984375 C6.24984375 2.76984375 6.90984375 1.44984375 7.58984375 0.08984375 C14.70469062 0.47550835 20.94426241 1.48083774 27.58984375 4.08984375 C28.48219928 7.68039849 28.58730911 10.29778295 27.84765625 13.9140625 C27.66887939 14.84855225 27.49010254 15.78304199 27.3059082 16.74584961 C27.11085693 17.74624268 26.91580566 18.74663574 26.71484375 19.77734375 C24.44137337 32.16751698 23.88292324 44.3941188 23.73168945 56.97045898 C23.58984375 59.08984375 23.58984375 59.08984375 22.58984375 60.08984375 C21.2594075 60.18821585 19.92391031 60.22062967 18.58984375 60.22265625 C17.78546875 60.22394531 16.98109375 60.22523437 16.15234375 60.2265625 C15.30671875 60.22269531 14.46109375 60.21882813 13.58984375 60.21484375 C12.74421875 60.21871094 11.89859375 60.22257812 11.02734375 60.2265625 C10.22296875 60.22527344 9.41859375 60.22398438 8.58984375 60.22265625 C7.84734375 60.22152832 7.10484375 60.22040039 6.33984375 60.21923828 C4.58984375 60.08984375 4.58984375 60.08984375 3.58984375 59.08984375 C3.22223644 56.76166411 2.88742794 54.42800525 2.58984375 52.08984375 C1.70296875 52.87359375 0.81609375 53.65734375 -0.09765625 54.46484375 C-5.78458529 59.49050197 -11.64366394 59.53208995 -18.96484375 59.39453125 C-25.5791462 58.80959294 -29.51862664 56.27433008 -34.16015625 51.65234375 C-39.9582253 44.51421755 -42.2171689 34.92809239 -41.78125 25.83984375 C-40.37945187 15.45178185 -36.38794819 7.94272823 -28.41015625 1.08984375 C-20.22121476 -4.7100304 -8.61289396 -5.11675096 0 0 Z " fill="#FCFEFE" transform="translate(534.41015625,56.91015625)"/>
<path d="M0 0 C2.25868262 1.67323813 4.30366162 3.41537858 6.3359375 5.35546875 C6.90957031 5.90074219 7.48320313 6.44601563 8.07421875 7.0078125 C13.26494942 12.48190812 16.55898962 19.36769392 16.5859375 26.98046875 C16.5034375 28.09421875 16.4209375 29.20796875 16.3359375 30.35546875 C14.2571255 31.36483411 12.1727013 32.36264721 10.0859375 33.35546875 C8.92578125 33.91234375 7.765625 34.46921875 6.5703125 35.04296875 C3.3359375 36.35546875 3.3359375 36.35546875 -0.6640625 36.35546875 C-1.02757812 35.54722656 -1.39109375 34.73898438 -1.765625 33.90625 C-5.14600909 26.7207669 -7.6207225 21.70120828 -15.015625 18.26171875 C-20.82311543 16.27449489 -27.35045908 16.39704164 -32.9765625 18.91796875 C-39.94311741 22.99247735 -44.43101099 29.67778604 -46.6640625 37.35546875 C-47.70002557 44.16322608 -46.66947521 49.71385803 -42.6640625 55.35546875 C-36.76942673 61.25010452 -31.31915828 62.53481089 -23.2265625 62.54296875 C-21.0609375 62.48109375 -18.8953125 62.41921875 -16.6640625 62.35546875 C-16.3340625 68.62546875 -16.0040625 74.89546875 -15.6640625 81.35546875 C-26.02328455 85.49915757 -36.34259768 83.98061416 -46.50390625 79.90234375 C-57.36643053 74.58521196 -65.66597016 65.79087264 -69.6640625 54.35546875 C-73.328567 42.84548147 -70.23260308 30.76705302 -65.19140625 20.296875 C-58.03901372 7.02352243 -47.95265799 -1.55639614 -33.6796875 -6.3046875 C-21.7362131 -8.31841283 -10.36366794 -6.39751349 0 0 Z " fill="#FCFEFE" transform="translate(777.6640625,103.64453125)"/>
<path d="M0 0 C1.93433497 1.42872662 3.28247791 2.63536582 4.59765625 4.64453125 C5.25465593 11.34592795 0.90838736 17.04564958 -2.40234375 22.64453125 C-5.84640785 22.0725276 -8.55918211 21.18016476 -11.65234375 19.58203125 C-17.10839077 17.11188061 -21.84074251 16.5204798 -27.60546875 18.33984375 C-32.40621066 20.4557263 -34.89479347 22.93033672 -37.40234375 27.64453125 C-39.84541235 34.97373705 -38.53834419 42.09653372 -35.75 49.15234375 C-33.36041973 53.57133567 -29.8539206 56.41874283 -25.40234375 58.64453125 C-17.28412273 59.63112061 -11.17332461 58.21760209 -4.40234375 53.64453125 C-2.18299903 51.75299394 -0.34062313 49.83784739 1.59765625 47.64453125 C5.38101673 49.18557968 7.5771045 51.50262732 10.28515625 54.51953125 C11.07277344 55.38320313 11.86039063 56.246875 12.671875 57.13671875 C15.72316575 61.11020487 15.72316575 61.11020487 15.59765625 63.64453125 C13.89280434 65.86971499 12.29099681 67.66179311 10.28515625 69.58203125 C9.73625732 70.11618652 9.1873584 70.6503418 8.62182617 71.20068359 C-1.08572039 80.33406001 -11.99801807 83.20210909 -25.125 82.95703125 C-37.05597878 81.81939323 -45.9505188 75.1205399 -53.57421875 66.28125 C-61.70558865 54.55331265 -62.49099317 40.4083822 -61.40234375 26.64453125 C-59.47513067 17.12960498 -54.06457085 8.08214739 -46.46484375 1.9921875 C-32.28585613 -7.27249191 -14.98044605 -8.45238175 0 0 Z " fill="#FCFEFE" transform="translate(647.40234375,895.35546875)"/>
<path d="M0 0 C5.84198729 3.37000589 11.46176292 8.57278875 13.625 15.0625 C13.693991 17.12395107 13.70967727 19.18751401 13.6875 21.25 C13.67847656 22.33667969 13.66945313 23.42335938 13.66015625 24.54296875 C13.64855469 25.37441406 13.63695312 26.20585937 13.625 27.0625 C15.935 26.7325 18.245 26.4025 20.625 26.0625 C21.99465208 28.30429377 23.34552808 30.55422338 24.6875 32.8125 C25.27241211 33.76382813 25.27241211 33.76382813 25.86914062 34.734375 C28.67968233 39.50980869 28.67968233 39.50980869 28.41796875 42.1550293 C27.0389945 45.47212469 23.6207453 46.56493209 20.5625 48.125 C6.53430136 55.65532945 -6.01371439 65.07689897 -18.375 75.0625 C-21.35208604 72.15629696 -24.13832836 69.27487509 -26.625 65.9375 C-27.12515625 65.27492188 -27.6253125 64.61234375 -28.140625 63.9296875 C-29.375 62.0625 -29.375 62.0625 -30.375 59.0625 C-28.97054165 56.7988436 -27.1782087 55.0416315 -25.375 53.0625 C-26.385625 53.02125 -27.39625 52.98 -28.4375 52.9375 C-33.26036543 52.22480936 -36.24247665 49.68472303 -39.375 46.0625 C-44.21671021 38.30991266 -45.12332392 31.12670523 -44.375 22.0625 C-42.12071193 13.45756039 -36.76509491 7.33450861 -29.3125 2.75 C-20.1548349 -2.5304862 -10.03949835 -4.51388298 0 0 Z " fill="#FCFEFE" transform="translate(891.375,253.9375)"/>
<path d="M0 0 C1.83984375 1.984375 1.83984375 1.984375 3.9375 4.75 C14.25037902 17.753922 26.62500588 28.22743983 40 38 C38.52869627 42.3573226 36.16919385 45.71934134 33.375 49.3125 C32.95476562 49.86228516 32.53453125 50.41207031 32.1015625 50.97851562 C31.07279961 52.32292168 30.0370991 53.66201413 29 55 C26.69 54.34 24.38 53.68 22 53 C21.814375 54.299375 21.62875 55.59875 21.4375 56.9375 C19.90094357 63.84655517 15.54965644 69.48373791 9.75 73.5 C3.15506744 77.09723594 -4.51435015 76.99610612 -11.76171875 75.38671875 C-21.02979628 72.08396585 -27.64144466 65.73387766 -32.125 57.078125 C-35.17802081 49.82720058 -35.28971991 40.56826023 -33.1640625 33.0390625 C-30.45737515 27.13521425 -26.57758814 22.39204385 -21 19 C-18.02044634 17.96826015 -15.12967875 17.35498671 -12 17 C-12.99 15.68 -13.98 14.36 -15 13 C-13.45339834 9.19029195 -11.09618599 6.97630811 -8.0625 4.25 C-7.18722656 3.45078125 -6.31195313 2.6515625 -5.41015625 1.828125 C-3 0 -3 0 0 0 Z " fill="#FBFDFE" transform="translate(178,190)"/>
<path d="M0 0 C4.21995626 0.53967469 6.50293822 1.87319821 9.8125 4.5 C21.51989698 13.27270096 34.53002884 19.42930714 48 25 C47.50512525 29.87581861 46.89012131 33.96487953 44.9375 38.5 C44.57527344 39.3559375 44.21304688 40.211875 43.83984375 41.09375 C43.42412109 42.03734375 43.42412109 42.03734375 43 43 C41.02 43 39.04 43 37 43 C37.05800781 43.82242188 37.11601562 44.64484375 37.17578125 45.4921875 C37.53254933 54.31964916 36.3952204 60.72827611 30.6484375 67.62109375 C25.46948367 72.4962542 18.65977725 74.1278577 11.75 74.5 C2.17519489 74.19113532 -6.58690289 70.34989782 -13.41796875 63.69140625 C-20.28302079 56.35173332 -21.43020913 50.34396579 -21.2421875 40.41015625 C-20.70320381 32.82091818 -18.26223434 28.62072805 -12.71875 23.4765625 C-10.8721977 21.89020621 -9.0142164 20.36966715 -7 19 C-7.515625 18.608125 -8.03125 18.21625 -8.5625 17.8125 C-10 16 -10 16 -9.875 13.75 C-8.73870851 10.17879818 -6.86663147 8.0271889 -4.4375 5.1875 C-3.61121094 4.21167969 -2.78492187 3.23585938 -1.93359375 2.23046875 C-1.29550781 1.49441406 -0.65742187 0.75835937 0 0 Z " fill="#FBFDFE" transform="translate(94,306)"/>
<path d="M0 0 C5.36491137 3.82371865 9.04770315 9.08060944 11.125 15.3125 C11.79915915 23.29189193 11.72211138 30.50523892 7.125 37.3125 C4.4375 39.75 4.4375 39.75 2.125 41.3125 C1.63 42.3025 1.63 42.3025 1.125 43.3125 C2.775 43.6425 4.425 43.9725 6.125 44.3125 C5.67897709 51.00284366 3.05154458 56.34062122 0.125 62.3125 C-6.44415073 61.69171989 -12.33574647 59.6088852 -18.5625 57.5 C-28.35307248 54.25909742 -38.03572815 51.80397346 -48.18359375 50.00390625 C-51.875 49.3125 -51.875 49.3125 -53.875 48.3125 C-53.76006243 46.41603002 -53.63260358 44.52031668 -53.5 42.625 C-53.43039062 41.56925781 -53.36078125 40.51351562 -53.2890625 39.42578125 C-52.88739911 36.40572731 -52.13430981 34.07171946 -50.875 31.3125 C-48.565 31.3125 -46.255 31.3125 -43.875 31.3125 C-44.16375 30.62285156 -44.4525 29.93320312 -44.75 29.22265625 C-47.43724459 22.42056838 -49.56939793 16.32320618 -47.14453125 9.15234375 C-44.07937913 2.45905238 -39.03223871 -2.71281161 -32.375 -5.875 C-20.83543305 -8.55382804 -10.05490121 -6.04641463 0 0 Z " fill="#FBFDFE" transform="translate(942.875,589.6875)"/>
<path d="M0 0 C5.60471688 4.90279788 9.53858658 10.5012192 10.3125 18.046875 C10.57649268 25.20767636 9.81232907 29.92410055 6 36 C8.31 36.33 10.62 36.66 13 37 C13 42.61 13 48.22 13 54 C8.49754549 55.28641558 4.72011333 56.30262985 0.19140625 56.9296875 C-1.41323486 57.1603894 -1.41323486 57.1603894 -3.05029297 57.39575195 C-4.16807129 57.55390381 -5.28584961 57.71205566 -6.4375 57.875 C-15.4901741 59.19457454 -24.23348631 60.83170002 -33.0234375 63.36328125 C-37.65639159 64.35431999 -37.65639159 64.35431999 -40 63 C-41.30078125 60.19921875 -41.30078125 60.19921875 -42.3125 56.6875 C-42.83263672 54.96080078 -42.83263672 54.96080078 -43.36328125 53.19921875 C-43.95555972 50.22329196 -44.12204646 48.76246525 -43 46 C-42 45 -42 45 -39.4375 44.9375 C-38.633125 44.958125 -37.82875 44.97875 -37 45 C-37.721875 44.319375 -38.44375 43.63875 -39.1875 42.9375 C-45.11558625 36.94204913 -48.92111423 31.18267188 -49.03125 22.55078125 C-48.54500018 14.612753 -46.18480702 8.79709346 -40.4375 3.25 C-29.48591642 -5.54750372 -12.13219571 -7.86060593 0 0 Z " fill="#FBFDFE" transform="translate(951,400)"/>
<path d="M0 0 C8.93019689 5.44023488 14.9430257 12.40295526 17.984375 22.44921875 C19.7159312 31.22700859 17.9139138 39.05520567 13.50390625 46.69921875 C8.66905338 52.95608716 2.95565698 57.92363517 -4.62109375 60.44921875 C-16.41512094 61.52885739 -25.01823461 60.21448647 -34.73828125 52.84375 C-41.25237385 46.95870068 -44.86512073 39.01750889 -45.859375 30.37890625 C-46.1888837 21.25671793 -43.26398136 13.93255394 -37.37109375 7.01171875 C-27.64358169 -3.10104131 -12.91634534 -6.0645114 0 0 Z " fill="#FCFEFE" transform="translate(241.62109375,151.55078125)"/>
<path d="M0 0 C6.3222994 4.98528854 9.71462778 10.63893505 11.6328125 18.44140625 C12.85782553 29.40705684 11.34591066 37.87958558 4.5078125 46.546875 C-2.08424974 53.20760456 -9.40743307 55.54221583 -18.5546875 55.75390625 C-27.87740847 55.64868367 -34.81008457 52.8277843 -41.609375 46.44140625 C-48.32426278 38.80135615 -49.86907664 31.12920271 -49.765625 21.1875 C-48.9013776 13.06187984 -45.26585545 6.5761563 -38.9921875 1.37890625 C-37.48110472 0.35317125 -35.94039199 -0.63094559 -34.3671875 -1.55859375 C-33.76390625 -1.91695313 -33.160625 -2.2753125 -32.5390625 -2.64453125 C-22.72910692 -7.29359716 -8.92823296 -5.87849002 0 0 Z " fill="#FCFEFE" transform="translate(95.3671875,485.55859375)"/>
<path d="M0 0 C8.39290248 4.43176626 12.56883071 10.50727338 15.5078125 19.32421875 C15.62898486 21.59267804 15.68321633 23.86505769 15.6953125 26.13671875 C15.70949219 27.33941406 15.72367188 28.54210937 15.73828125 29.78125 C15.50905922 33.305053 14.77812229 36.04551403 13.5078125 39.32421875 C7.51551565 39.57014065 2.05846299 38.63615948 -3.8046875 37.44921875 C-4.69091797 37.27519531 -5.57714844 37.10117188 -6.49023438 36.921875 C-9.15899624 36.39629827 -11.82571922 35.86130014 -14.4921875 35.32421875 C-16.3814726 34.94642544 -18.27079385 34.5688128 -20.16015625 34.19140625 C-21.6041791 33.90240584 -23.04819438 33.61336762 -24.4921875 33.32421875 C-23.64170971 37.74670325 -23.11889886 39.81751595 -19.5546875 42.69921875 C-12.40545914 46.49268686 -5.25364231 45.64531744 2.5078125 44.32421875 C5.15586833 55.17651899 5.15586833 55.17651899 4.5078125 58.32421875 C-1.68785551 63.28075316 -9.9384684 62.94084888 -17.4921875 62.32421875 C-26.75887092 60.59474946 -33.33359799 56.4258059 -39.4921875 49.32421875 C-44.93041719 40.98656156 -45.55450763 31.98125824 -44.4921875 22.32421875 C-42.24737884 13.71266827 -38.30427892 6.57817816 -30.8984375 1.5703125 C-20.73311365 -4.19449616 -10.76913439 -4.47405729 0 0 Z " fill="#FBFDFE" transform="translate(651.4921875,75.67578125)"/>
<path d="M0 0 C0.53107314 2.74837849 1.05015881 5.49812375 1.5625 8.25 C1.78969727 9.41595703 1.78969727 9.41595703 2.02148438 10.60546875 C2.16005859 11.35957031 2.29863281 12.11367188 2.44140625 12.890625 C2.57232666 13.58188477 2.70324707 14.27314453 2.83813477 14.98535156 C3.01710362 17.21287942 2.65206197 18.87506962 2 21 C-0.31 21.33 -2.62 21.66 -5 22 C-4.57847656 22.68707031 -4.15695312 23.37414062 -3.72265625 24.08203125 C-3.17480469 24.98308594 -2.62695312 25.88414062 -2.0625 26.8125 C-1.51722656 27.70582031 -0.97195313 28.59914063 -0.41015625 29.51953125 C2.3186555 34.31951867 2.61147054 38.60418567 2 44 C0.5693809 48.90801503 -0.94893926 53.67343627 -5 57 C-7.86842214 57.95614071 -9.66200813 58.12652444 -12.63916016 58.12939453 C-13.57668121 58.13254669 -14.51420227 58.13569885 -15.48013306 58.13894653 C-16.99430313 58.13591019 -16.99430313 58.13591019 -18.5390625 58.1328125 C-19.5756601 58.13376923 -20.61225769 58.13472595 -21.68026733 58.13571167 C-23.87082988 58.13639222 -26.06139445 58.13454665 -28.25195312 58.13037109 C-31.61853521 58.12501029 -34.98498452 58.13032589 -38.3515625 58.13671875 C-40.4765628 58.13605816 -42.60156301 58.13477739 -44.7265625 58.1328125 C-46.24680527 58.13584885 -46.24680527 58.13584885 -47.79776001 58.13894653 C-49.19458511 58.13421829 -49.19458511 58.13421829 -50.61962891 58.12939453 C-51.44330963 58.12859894 -52.26699036 58.12780334 -53.1156311 58.12698364 C-55 58 -55 58 -56 57 C-56.09860131 55.59651265 -56.13078937 54.18819523 -56.1328125 52.78125 C-56.13410156 51.93175781 -56.13539063 51.08226562 -56.13671875 50.20703125 C-56.13285156 49.31371094 -56.12898437 48.42039062 -56.125 47.5 C-56.12886719 46.60667969 -56.13273438 45.71335937 -56.13671875 44.79296875 C-56.13542969 43.94347656 -56.13414062 43.09398437 -56.1328125 42.21875 C-56.13168457 41.43435547 -56.13055664 40.64996094 -56.12939453 39.84179688 C-56 38 -56 38 -55 37 C-52.61003127 36.92381356 -50.24875719 36.90921435 -47.859375 36.9375 C-47.14017883 36.94128662 -46.42098267 36.94507324 -45.67999268 36.94897461 C-42.59372074 36.96535317 -39.50757951 36.99332809 -36.42138672 37.02050781 C-34.17155577 37.03865546 -31.92174688 37.05071696 -29.671875 37.0625 C-28.63253815 37.07494751 -28.63253815 37.07494751 -27.57220459 37.08764648 C-23.91362942 37.10603861 -20.55692705 36.8733296 -17 36 C-16.06474418 30.80193456 -16.06474418 30.80193456 -16.5 25.625 C-19.51000812 22.36415787 -24.18993976 22.04971634 -28.44091797 21.78881836 C-30.19879639 21.81407593 -30.19879639 21.81407593 -31.9921875 21.83984375 C-33.91417969 21.8562793 -33.91417969 21.8562793 -35.875 21.87304688 C-37.2083443 21.89383945 -38.54167786 21.9153319 -39.875 21.9375 C-42.5182365 21.97380819 -45.16129665 22.00192653 -47.8046875 22.02734375 C-48.96983887 22.04531006 -50.13499023 22.06327637 -51.33544922 22.08178711 C-54 22 -54 22 -55 21 C-55.08669432 19.5112814 -55.10703494 18.018555 -55.09765625 16.52734375 C-55.09443359 15.62822266 -55.09121094 14.72910156 -55.08789062 13.80273438 C-55.07951172 12.85720703 -55.07113281 11.91167969 -55.0625 10.9375 C-55.05798828 9.98810547 -55.05347656 9.03871094 -55.04882812 8.06054688 C-55.0370011 5.70696935 -55.02052025 3.35351523 -55 1 C-49.41737389 0.85529661 -43.83469324 0.7129902 -38.25195312 0.57275391 C-36.35903335 0.52488475 -34.46612906 0.47639913 -32.57324219 0.42724609 C-21.71263514 0.1456748 -10.86508011 -0.08264164 0 0 Z " fill="#FBFDFE" transform="translate(966,476)"/>
<path d="M0 0 C4.60520528 2.37237848 9.02955583 5.71038342 12 10 C11.79454324 13.42427935 9.99326562 15.6148833 8 18.3125 C5.33359412 22.24126228 3.81557962 25.11285984 4 30 C5.79140485 33.72612208 7.41319926 35.59575949 10.8125 37.9375 C14.78459364 39.26153121 16.98300842 39.16857937 21 38 C26.26007593 34.20785223 27.94376518 28.91598285 30 23 C35.87444318 23.3671527 40.64282382 24.86491289 45 29 C46.1796863 32.73567327 46.47092193 34.77560299 45.0625 38.4375 C44.5365625 39.2109375 44.5365625 39.2109375 44 40 C45.216875 40.20625 46.43375 40.4125 47.6875 40.625 C51.38968146 41.58506837 53.86148362 42.87800406 56.140625 46.125 C57.99256296 50.1655919 57.93545553 53.69918616 57 58 C55.10058262 62.87935732 52.57079516 67.44864326 50 72 C46.13737043 70.5434935 43.51516934 69.38580489 41 66 C40.9375 63.5 40.9375 63.5 42 61 C44.5625 58.6875 44.5625 58.6875 47 57 C46.42547254 53.06924356 46.42547254 53.06924356 44 50 C39.36749094 49.32109781 36.8820191 50.35419673 33.14453125 53.1015625 C32.33048828 53.73191406 32.33048828 53.73191406 31.5 54.375 C24.30676231 59.84254409 18.02850931 62.09270915 9 61 C-2.46507076 57.66470669 -9.91044872 49.8159188 -15.875 39.875 C-18.39179714 33.17879429 -18.15179478 25.30565102 -15.828125 18.63671875 C-11.93753976 10.58481167 -7.68734526 4.64816225 0 0 Z " fill="#FBFDFE" transform="translate(125,251)"/>
<path d="M0 0 C1.94196391 1.94196391 1.20801456 5.62298719 1.24609375 8.27734375 C1.27764387 9.82642153 1.30947535 11.3754936 1.34155273 12.92456055 C1.35693085 13.74258148 1.37230896 14.56060242 1.38815308 15.40341187 C1.78810775 35.94208633 2.84415411 56.36120422 5.47827148 76.75073242 C6.10433183 81.79133635 6.10433183 81.79133635 5 84 C-2.8047716 85.61272066 -11.04183165 86.53953684 -19 86 C-21.47343298 83.52656702 -21.2615108 82.78561131 -21.30297852 79.37695312 C-21.31962051 78.41414429 -21.33626251 77.45133545 -21.35340881 76.45935059 C-21.36182297 75.41057739 -21.37023712 74.3618042 -21.37890625 73.28125 C-21.39590073 72.19477173 -21.4128952 71.10829346 -21.43040466 69.9888916 C-21.48366438 66.49265465 -21.52376844 62.9964256 -21.5625 59.5 C-21.62123967 54.94783627 -21.68573194 50.39578179 -21.75390625 45.84375 C-21.7698735 44.73663666 -21.78584076 43.62952332 -21.80229187 42.48886108 C-21.93244963 34.55936893 -22.27107889 26.66320939 -22.79052734 18.75048828 C-23.10253411 13.16418531 -23.08895258 7.59412871 -23 2 C-6.57894737 -0.39473684 -6.57894737 -0.39473684 0 0 Z " fill="#FBFDFE" transform="translate(571,897)"/>
<path d="M0 0 C4.86804361 0.63678367 9.40241605 1.55338079 14.08203125 3.046875 C13.91703125 3.789375 13.75203125 4.531875 13.58203125 5.296875 C12.75235176 11.51947115 11.90948081 19.02423518 14.08203125 25.046875 C18.31710261 27.6937946 23.24906168 27.6004697 28.08203125 27.046875 C31.45522539 25.72692947 32.74318677 24.50256241 34.89453125 21.609375 C36.62079611 16.43058042 36.31838388 11.45672405 36.08203125 6.046875 C38.49990245 5.93861211 40.91290681 5.85947711 43.33203125 5.796875 C44.35490234 5.74660156 44.35490234 5.74660156 45.3984375 5.6953125 C48.71115358 5.63098792 50.73778938 5.82158295 53.53515625 7.65234375 C57.10818581 13.18332133 55.74398844 20.95643583 54.421875 27.12890625 C51.48242874 36.22719228 46.09657143 42.25809832 37.9765625 47.13671875 C31.00558652 50.48566185 20.65656189 50.26129648 13.2421875 48.29296875 C11.06854735 47.34548458 9.09805075 46.29117091 7.08203125 45.046875 C6.03015625 44.49 4.97828125 43.933125 3.89453125 43.359375 C-1.6175751 38.82719867 -5.08004702 32.91578986 -6.91796875 26.046875 C-7.60867873 17.89290909 -7.78173922 9.47311275 -3.91796875 2.046875 C-1.91796875 0.046875 -1.91796875 0.046875 0 0 Z " fill="#FCFEFE" transform="translate(55.91796875,421.953125)"/>
<path d="M0 0 C3.08273312 1.38757167 5.32796796 3.03037383 7.8125 5.3125 C11.37732631 8.50947369 15.05584662 11.28839455 19 14 C17.71808915 17.74910611 16.3481484 19.95543561 13.4375 22.625 C4.05033491 31.67327827 -3.82914026 42.48208335 -11.203125 53.203125 C-11.89921875 54.20859375 -12.5953125 55.2140625 -13.3125 56.25 C-13.92738281 57.16265625 -14.54226563 58.0753125 -15.17578125 59.015625 C-15.77777344 59.67046875 -16.37976563 60.3253125 -17 61 C-21.43116224 61 -21.72698393 60.77938494 -24.75 57.9375 C-25.43578125 57.30585938 -26.1215625 56.67421875 -26.828125 56.0234375 C-27.54484375 55.35570312 -28.2615625 54.68796875 -29 54 C-30.49557979 52.68246543 -31.99538205 51.36970354 -33.5 50.0625 C-34.66666667 49.04166667 -35.83333333 48.02083333 -37 47 C-35.87085476 43.61256429 -34.5574506 42.84344274 -31.859375 40.69140625 C-28.66791483 37.78825025 -26.10173802 34.37879276 -23.41796875 31.01171875 C-21.02715869 28.03382771 -18.55179453 25.14570997 -16.0625 22.25 C-11.2026281 16.45319355 -7.04316089 10.30051265 -2.93359375 3.95703125 C-1 1 -1 1 0 0 Z " fill="#FBFDFE" transform="translate(796,154)"/>
<path d="M0 0 C6.47004647 2.77641841 9.86143648 7.87022541 13.1640625 13.875 C14.35072399 18.62164596 14.50633484 22.72527362 12.5390625 27.25 C10.6475308 29.54685992 9.61487971 30.48688602 6.7890625 31.375 C3.5390625 31.5 3.5390625 31.5 0.7890625 31.375 C0.5209375 30.1375 0.2528125 28.9 -0.0234375 27.625 C-0.87264076 24.29895391 -1.56956738 21.72288455 -4.2109375 19.375 C-6.57108688 18.76373066 -6.57108688 18.76373066 -9.2109375 19.375 C-11.08213127 21.28770995 -12.58671904 23.04846382 -14.1484375 25.1875 C-17.89619819 30.26221902 -21.28788822 33.70195754 -27.73828125 34.80859375 C-33.43732014 34.81783044 -37.89406857 34.34036815 -42.2109375 30.375 C-46.28540373 25.11523451 -48.70870312 20.12099982 -48.62109375 13.3125 C-48.2109375 11.375 -48.2109375 11.375 -45.5859375 8.9375 C-42.35344182 7.44097422 -39.74077041 6.71117456 -36.2109375 6.375 C-34.8909375 8.685 -33.5709375 10.995 -32.2109375 13.375 C-29.01188762 14.21453267 -29.01188762 14.21453267 -25.2109375 13.375 C-23.15888324 11.01336859 -21.56876158 8.50055045 -19.8828125 5.8671875 C-15.01807342 -1.38445627 -7.98289188 -2.25664788 0 0 Z " fill="#FBFDFE" transform="translate(97.2109375,550.625)"/>
<path d="M0 0 C7.44272945 3.79433266 12.3326702 10.28375626 15.43359375 17.92578125 C16 20 16 20 15.5625 22.8125 C12.79924284 26.68106002 10.36574612 28.69077446 5.6875 29.75 C4.3571875 29.87375 4.3571875 29.87375 3 30 C2.69707031 29.28972656 2.39414063 28.57945312 2.08203125 27.84765625 C1.66308594 26.92855469 1.24414062 26.00945313 0.8125 25.0625 C0.40644531 24.14597656 0.00039062 23.22945312 -0.41796875 22.28515625 C-1.82115606 19.7924376 -1.82115606 19.7924376 -4.5234375 19.0625 C-7.19556844 18.72998799 -7.19556844 18.72998799 -9.4375 20.9375 C-11.93335872 23.92035555 -14.2197518 26.99669705 -16.515625 30.1328125 C-18.89208859 33.12215355 -21.59603559 35.2980178 -25 37 C-31.02634964 37.5107076 -35.14906164 36.88302813 -40 33 C-44.39691877 28.73725951 -48.72500844 23.758218 -49.1875 17.4375 C-47.2699511 13.50147857 -43.95261109 11.69291079 -40 10 C-37.125 9.9375 -37.125 9.9375 -35 11 C-34.690625 11.66 -34.38125 12.32 -34.0625 13 C-33.11848762 15.32402593 -33.11848762 15.32402593 -30.125 16 C-27.01242341 16.30397711 -27.01242341 16.30397711 -25 14.5625 C-23.86622367 13.10984908 -22.75136687 11.64053041 -21.703125 10.125 C-16.04117965 2.08869047 -10.17295972 -3.08788163 0 0 Z " fill="#FBFDFE" transform="translate(107,594)"/>
<path d="M0 0 C0.17015625 0.78834229 0.3403125 1.57668457 0.515625 2.38891602 C3.75530657 17.23350748 7.17273082 31.72800642 12.50976562 45.99047852 C12.83525391 46.86244873 13.16074219 47.73441895 13.49609375 48.6328125 C13.78669678 49.38449707 14.0772998 50.13618164 14.37670898 50.91064453 C15 53 15 53 15 57 C11.90045712 58.03526249 8.79476539 59.05067567 5.6875 60.0625 C4.80642578 60.35705078 3.92535156 60.65160156 3.01757812 60.95507812 C2.17001953 61.22900391 1.32246094 61.50292969 0.44921875 61.78515625 C-0.33106689 62.04176025 -1.11135254 62.29836426 -1.9152832 62.56274414 C-4 63 -4 63 -7 62 C-7.95703125 59.8671875 -7.95703125 59.8671875 -8.8125 56.875 C-9.15152344 55.70195313 -9.49054688 54.52890625 -9.83984375 53.3203125 C-10.71986294 50.09434539 -11.55323406 46.8574543 -12.37890625 43.6171875 C-12.8775274 41.66143876 -13.37622722 39.70571008 -13.875 37.75 C-14.25096313 36.26898804 -14.25096313 36.26898804 -14.63452148 34.75805664 C-16.44553419 27.76322777 -18.59332025 20.97698347 -21.17138672 14.22753906 C-22.43747646 10.8722737 -23 8.65459556 -23 5 C-21.95199219 4.72285156 -20.90398437 4.44570312 -19.82421875 4.16015625 C-18.44529933 3.79432048 -17.0663938 3.42843233 -15.6875 3.0625 C-14.65206055 2.78889648 -14.65206055 2.78889648 -13.59570312 2.50976562 C-3.76670871 -0.10180294 -3.76670871 -0.10180294 0 0 Z " fill="#FBFDFE" transform="translate(390,71)"/>
<path d="M0 0 C5.77863265 0.6377495 11.02958617 2.12474927 16.5625 3.875 C27.77973111 7.32803491 38.96595079 9.77959187 50.57421875 11.5703125 C53 12 53 12 56 13 C55.42351925 20.35012956 53.28953836 27.01424576 51 34 C47.04338909 33.41184532 43.36776 32.57884209 39.5703125 31.328125 C38.53825684 30.99554688 37.50620117 30.66296875 36.44287109 30.3203125 C35.34797363 29.96710938 34.25307617 29.61390625 33.125 29.25 C20.56987089 25.27638293 7.93973174 22.39951393 -5 20 C-4.41337896 15.15265772 -3.42319653 10.71129236 -1.9375 6.0625 C-1.57527344 4.91910156 -1.21304688 3.77570313 -0.83984375 2.59765625 C-0.56269531 1.74042969 -0.28554688 0.88320313 0 0 Z " fill="#FBFDFE" transform="translate(62,386)"/>
<path d="M0 0 C7.64758608 0.65224615 14.90550109 2.27540957 22.375 4 C33.65019817 6.5275063 44.45400233 7.97156158 56 8 C57.41218473 12.74157391 56.55250356 16.59839796 55.5625 21.3125 C55.41490234 22.05306641 55.26730469 22.79363281 55.11523438 23.55664062 C54.75199921 25.37281643 54.37715682 27.18666411 54 29 C50.67944005 30.09345432 48.48418943 29.87977774 45.10546875 29.07421875 C44.15720215 28.85540039 43.20893555 28.63658203 42.23193359 28.41113281 C41.22727051 28.17233398 40.22260742 27.93353516 39.1875 27.6875 C26.62062056 24.82951993 14.29736919 23.01407675 1.4140625 22.24609375 C-1 22 -1 22 -2 21 C-2.41215287 13.85601687 -1.2000507 7.02886838 0 0 Z " fill="#FBFDFE" transform="translate(907,547)"/>
<path d="M0 0 C3.6638774 2.15395917 6.23911256 4.79526156 8.5 8.375 C9.45230011 13.37457557 8.93959142 17.4340143 6.3125 21.8125 C2.6303167 25.29564637 -0.4609362 26.80761702 -5.5 27.4375 C-9.70552222 26.91180972 -11.76772984 25.70608664 -15 23 C-17.57458239 18.79982805 -17.67618791 14.80009939 -17 10 C-13.43961505 3.01109621 -8.28624717 -2.08725544 0 0 Z " fill="#039FFE" transform="translate(835,210)"/>
<path d="M0 0 C3.66931783 1.63080792 6.0834248 3.45433589 8 7 C9.01513329 11.49559029 9.36727219 13.87657917 7.9375 18.25 C5.53142782 21.66507018 3.79727475 23.20492467 0 25 C-5.1025578 25.81309051 -8.8542877 25.57285615 -13.5 23.25 C-17.12973909 19.98323482 -17.87013356 18.42853084 -18.3125 13.5625 C-17.8613175 8.41901948 -16.27543592 6.11989496 -12.4375 2.75 C-8.33847665 -0.19288856 -4.97332429 -0.53558877 0 0 Z " fill="#049FFE" transform="translate(918,341)"/>
<path d="M0 0 C3.58307912 2.73200843 6.65289488 6.59662657 7.30859375 11.13671875 C7.54548386 15.82427155 7.44815284 19.22027716 4.5625 23.0625 C1.43048238 26.18711332 -1.4386244 27.11462308 -5.8203125 27.26953125 C-10.35890778 26.7083071 -12.91362817 24.19500901 -15.875 20.9375 C-17.64676013 16.31123744 -17.7858141 11.87919116 -17 7 C-13.33030078 0.00038852 -7.39274098 -1.42647069 0 0 Z " fill="#029EFE" transform="translate(451,76)"/>
<path d="M0 0 C3.13117161 1.46477157 5.14481756 3.06869965 7 6 C8.15721831 11.31375757 7.65516726 15.58887052 5.375 20.5 C1.92932362 24.12702777 -1.05036066 25.7156776 -6 26.4375 C-10.64418473 25.76022306 -13.45673981 23.38893417 -16.875 20.3125 C-18.67739941 16.60756789 -18.51360206 13.03647814 -18 9 C-16.42283506 4.82515164 -13.93615137 2.77391533 -9.95703125 0.73828125 C-6.49903658 -0.56623171 -3.60396678 -0.8939527 0 0 Z " fill="#039FFE" transform="translate(885,272)"/>
<path d="M0 0 C4.32548892 2.20355096 7.56153147 4.77957369 10 9 C10.87682215 13.01372897 10.79657326 16.38280599 8.96484375 20.1015625 C6.37053969 23.61362872 3.94951175 25.44055933 -0.375 26.25 C-5.52490187 26.45913307 -9.18987938 24.32586069 -13 21 C-15.99760299 16.50359551 -15.81250295 12.26296953 -15 7 C-11.95839678 0.25758678 -7.04247224 -1.59309067 0 0 Z " fill="#029EFE" transform="translate(178,220)"/>
<path d="M0 0 C3.65771154 2.13366507 5.39849715 4.14246704 7 8 C7.7121481 13.01815989 7.52912753 16.94174495 5.25 21.5 C1.78269779 25.35255801 0.27756335 25.89860608 -4.9375 26.3125 C-8.72776772 26.19273318 -11.05155934 25.52723485 -14 23 C-17.27170458 18.26166923 -17.92157978 13.5995989 -17 8 C-12.90491717 0.2334636 -8.31488408 -1.08917012 0 0 Z " fill="#039EFE" transform="translate(532,73)"/>
<path d="M0 0 C3.21134314 1.44952369 5.49044958 2.84856302 7.87890625 5.4609375 C9.67757191 10.51968466 9.73722538 15.25638754 7.62890625 20.2109375 C5.32794974 22.9227791 3.25297777 24.05858268 -0.26953125 24.609375 C-5.7399324 24.70534695 -8.81674127 23.96288248 -13.12109375 20.2734375 C-16.41597354 16.97855771 -16.96483132 13.8831791 -17.12109375 9.2734375 C-15.94596021 5.3563257 -14.98208194 3.01484399 -11.87109375 0.3359375 C-7.6851774 -1.28134836 -4.28944367 -1.46931219 0 0 Z " fill="#039FFE" transform="translate(107.12109375,334.7265625)"/>
<path d="M0 0 C4.0259839 2.12693489 6.31214609 3.78421878 8 8 C8.69608513 12.52455337 8.61383227 15.9696387 6.25 19.9375 C1.88704717 23.93687342 -1.7901553 24.48856311 -7.5859375 24.39453125 C-11.27175399 23.79215671 -12.84086911 21.92527412 -15 19 C-16.85962086 15.28075827 -16.57398707 11.04979769 -16 7 C-11.58789204 1.11718938 -7.27539946 -0.75262753 0 0 Z " fill="#039EFE" transform="translate(937,415)"/>
<path d="M0 0 C4.61862787 2.57577324 8.30640263 4.9192079 10 10 C10.37315714 15.03762138 10.05123541 17.93168612 7 22 C6.608125 22.598125 6.21625 23.19625 5.8125 23.8125 C2.73613284 25.8280509 -0.50816434 25.5897028 -4 25 C-8.79642058 22.60178971 -11.60178971 19.79642058 -14 15 C-14.76929885 11.40514558 -14.8309757 8.41971125 -12.94140625 5.19140625 C-8.91688711 0.21151165 -6.30224674 -0.52518723 0 0 Z " fill="#039FFE" transform="translate(230,168)"/>
<path d="M0 0 C3.8026029 2.0050088 5.61790841 3.42686262 8 7 C8.6820176 10.76904461 8.83098707 14.45628171 6.984375 17.88671875 C4.84357352 20.5498242 3.25941392 21.91352869 0 23 C-5.35219303 23.34530278 -8.66997016 23.48807959 -13 20 C-16.00187368 17.16038976 -17.27730271 15.07766424 -17.5 11 C-17.28561853 6.94206502 -15.98729623 4.82133533 -13 2 C-8.75367995 -0.52291819 -4.83022333 -0.69481549 0 0 Z " fill="#039EFE" transform="translate(928,603)"/>
<path d="M0 0 C4.09190464 0.03320004 7.87211414 0.44981178 11.5625 2.25 C13 4 13 4 13.25 6.6875 C13.1675 7.450625 13.085 8.21375 13 9 C11.68 9.33 10.36 9.66 9 10 C8.690625 11.5778125 8.690625 11.5778125 8.375 13.1875 C7.14862345 17.40316939 4.73812709 19.79630062 1 22 C-0.40201747 22.57852765 -1.81968041 23.12048727 -3.25 23.625 C-7.19493642 24.65298425 -7.19493642 24.65298425 -9 28 C-9.02749478 30.06910593 -9.02749478 30.06910593 -8.625 32.1875 C-8.41875 33.445625 -8.2125 34.70375 -8 36 C-14.25 36.48076923 -14.25 36.48076923 -17.4375 34.4375 C-19.6232026 31.02780394 -19.55004566 28.987831 -19 25 C-15.88871515 18.89709511 -11.52018066 15.8699872 -5.1875 13.625 C-1.73585061 12.33801313 -1.73585061 12.33801313 -1.0625 9.125 C-1.02292239 7.14611942 -1 5.16677631 -1 3.1875 C-1 1 -1 1 0 0 Z " fill="#F7FCFE" transform="translate(148,181)"/>
<path d="M0 0 C3.12578143 1.6720747 5.39281175 3.7856235 7 7 C7.42071592 10.05920574 7.48514117 12.9467746 7 16 C4.46683511 19.19978722 2.22189767 21.72892848 -1.953125 22.23828125 C-7.51301978 22.41793771 -10.60984822 21.74769054 -15 18 C-17.45917586 14.3112362 -17.81591937 11.2815571 -17 7 C-12.91864086 -0.07030989 -7.67230903 -1.08093787 0 0 Z " fill="#039EFE" transform="translate(82,500)"/>
<path d="M0 0 C4.12244569 1.74058818 6.66200608 4.18993583 9 8 C9.61224257 12.285698 9.50455826 14.226344 7.125 17.875 C4.28167297 20.71832703 2.66737316 21.18591821 -1.25 21.3125 C-6.85956736 21.24936982 -9.90095671 19.02907518 -13.875 15.1875 C-15.54782163 11.93479128 -15.44242044 9.60256642 -15 6 C-10.88823538 -0.30470576 -7.12624889 -0.68045779 0 0 Z " fill="#FAFDFE" transform="translate(819,138)"/>
<path d="M0 0 C3.4375 1.5 3.4375 1.5 6 4 C7.44425988 7.88651957 7.44013558 10.92411302 5.875 14.75 C0.92799071 20.68641115 0.92799071 20.68641115 -3.59375 21.421875 C-8.33693952 21.65138417 -11.13987865 21.55654911 -15.1875 18.9375 C-17.48715288 15.21047637 -17.68139266 13.31548682 -17 9 C-13.21930009 1.71865202 -8.27603153 -1.40627879 0 0 Z " fill="#FAFDFE" transform="translate(379,47)"/>
<path d="M0 0 C3.52240699 0.10209875 4.61240187 0.38899913 7.6875 2.375 C10.29849666 6.37308864 11.12352333 9.6747836 10.6875 14.4375 C8.67321786 18.54066733 6.93267792 20.78745822 2.6875 22.4375 C0.43359375 22.5546875 0.43359375 22.5546875 -1.875 22.3125 C-2.63941406 22.24804688 -3.40382813 22.18359375 -4.19140625 22.1171875 C-7.06422237 21.19661659 -7.865354 20.05506502 -9.3125 17.4375 C-10.07462647 12.84232571 -9.88019826 8.67611438 -7.9375 4.4375 C-5.29754564 1.1883254 -4.18744525 0.11964129 0 0 Z " fill="#F9FDFE" transform="translate(44.3125,380.5625)"/>
<path d="M0 0 C4.6 2.2 4.6 2.2 6 5 C6.42526125 9.62062705 6.56310381 13.71290557 4.6875 18 C2.20545573 20.9416821 0.51549146 21.93191622 -3.3125 22.4375 C-7.01366906 21.99837825 -9.09698622 21.27180336 -11.828125 18.6875 C-14.11792511 15.39018784 -14.42841518 11.92483581 -14 8 C-10.62430345 1.36916749 -7.3975383 -0.63771882 0 0 Z " fill="#FAFDFE" transform="translate(981,558)"/>
<path d="M0 0 C1.65 5.28 3.3 10.56 5 16 C-3.21823511 18.7394117 -10.43271431 19.13943141 -19 19 C-16.44910267 14.07705054 -12.8382758 10.54065697 -8.9375 6.6875 C-8.30005859 6.04232422 -7.66261719 5.39714844 -7.00585938 4.73242188 C-6.39419922 4.12333984 -5.78253906 3.51425781 -5.15234375 2.88671875 C-4.59538818 2.33201904 -4.03843262 1.77731934 -3.46459961 1.20581055 C-2 0 -2 0 0 0 Z " fill="#049CFE" transform="translate(108,668)"/>
<path d="M0 0 C0.66 0 1.32 0 2 0 C2.8397028 2.91496831 3.67196003 5.8317186 4.5 8.75 C4.73847656 9.575 4.97695313 10.4 5.22265625 11.25 C5.44824219 12.04921875 5.67382812 12.8484375 5.90625 13.671875 C6.11572266 14.4050293 6.32519531 15.13818359 6.54101562 15.89355469 C7 18 7 18 7 22 C1.26157749 22.20413361 -3.60539047 22.27141454 -9 20 C-7.55676531 15.26210835 -5.62773267 11.01141849 -3.375 6.625 C-2.88773437 5.66400391 -2.88773437 5.66400391 -2.390625 4.68359375 C-1.59742593 3.12052499 -0.79922969 1.55999378 0 0 Z " fill="#049EFE" transform="translate(417,924)"/>
<path d="M0 0 C3.40501916 1.16704286 4.93083342 2.71677096 6.9375 5.6640625 C6.9375 8.3040625 6.9375 10.9440625 6.9375 13.6640625 C-2.4675 12.1790625 -2.4675 12.1790625 -12.0625 10.6640625 C-11.0625 3.6640625 -11.0625 3.6640625 -9 1.1640625 C-5.57258751 -0.58610558 -3.71804142 -0.718258 0 0 Z " fill="#069CFE" transform="translate(641.0625,88.3359375)"/>
<path d="M0 0 C0 3 0 3 -2.1875 5.4375 C-4.72229018 7.7469755 -7.29800309 9.89112436 -10 12 C-11.04257952 12.89477078 -12.08422315 13.79063303 -13.125 14.6875 C-16 17 -16 17 -19 18 C-19.66 18.66 -20.32 19.32 -21 20 C-21.66 19.34 -22.32 18.68 -23 18 C-22.51644043 17.63237549 -22.03288086 17.26475098 -21.53466797 16.88598633 C-19.31370089 15.1962355 -17.09434264 13.50438374 -14.875 11.8125 C-14.11445313 11.23435547 -13.35390625 10.65621094 -12.5703125 10.06054688 C-8.29531557 6.79901905 -4.1006806 3.47837284 0 0 Z " fill="#1AA1FE" transform="translate(207,104)"/>
<path d="M0 0 C0.33 0 0.66 0 1 0 C1.33 3.3 1.66 6.6 2 10 C0.046875 8.99088542 -1.90625 7.98177083 -3.859375 6.97265625 C-10.93520895 3.75754192 -17.85587186 4.61862395 -25 7 C-25 6.34 -25 5.68 -25 5 C-17.00426443 1.31640701 -8.20432828 2.4755913 0 5 C0 3.35 0 1.7 0 0 Z " fill="#0791FE" transform="translate(453,54)"/>
<path d="M0 0 C7.93441008 3.63514823 13.89906957 10.81297842 19.8984375 16.9609375 C21.83096046 19.04126091 21.83096046 19.04126091 24 20 C23.67 20.99 23.34 21.98 23 23 C22.55197021 22.5467334 22.10394043 22.0934668 21.64233398 21.62646484 C19.5767924 19.53991414 17.50718048 17.45744503 15.4375 15.375 C14.73302734 14.66214844 14.02855469 13.94929687 13.30273438 13.21484375 C9.95821662 9.85491347 6.59856903 6.59582848 2.97265625 3.5390625 C1.99167969 2.70117188 1.01070312 1.86328125 0 1 C0 0.67 0 0.34 0 0 Z " fill="#0A96FE" transform="translate(751,232)"/>
<path d="M0 0 C2.17290966 2.09530574 4.0885879 4.12107013 5.875 6.5625 C9.14979577 10.31888339 13.14655517 12.06664523 18 13 C17.67 13.99 17.34 14.98 17 16 C16.236875 15.690625 15.47375 15.38125 14.6875 15.0625 C12.81210323 14.32106407 10.91315348 13.63771783 9 13 C9 12.34 9 11.68 9 11 C8.4225 10.773125 7.845 10.54625 7.25 10.3125 C3.73557236 8.26241721 1.50810829 5.56666723 0.25 1.6875 C0.1675 1.130625 0.085 0.57375 0 0 Z " fill="#0A94FE" transform="translate(848,294)"/>
<path d="M0 0 C0.99 0.33 1.98 0.66 3 1 C3 1.66 3 2.32 3 3 C3.8353125 3.37125 3.8353125 3.37125 4.6875 3.75 C8.62640804 5.87913948 11.55694029 7.67082087 13 12 C10 12 10 12 7.51953125 9.8828125 C6.62621094 8.97273437 5.73289063 8.06265625 4.8125 7.125 C3.91144531 6.22007812 3.01039063 5.31515625 2.08203125 4.3828125 C0 2 0 2 0 0 Z " fill="#40AEFE" transform="translate(150,857)"/>
<path d="M0 0 C2.96125343 1.37486766 5.60121183 2.76664549 8 5 C9.04376 8.09932817 9.15601468 9.58090173 8.00390625 12.67578125 C7.52824219 13.54589844 7.05257812 14.41601562 6.5625 15.3125 C6.08941406 16.19550781 5.61632812 17.07851563 5.12890625 17.98828125 C4.75636719 18.65214844 4.38382813 19.31601562 4 20 C3.67 19.34 3.34 18.68 3 18 C3.474375 17.071875 3.94875 16.14375 4.4375 15.1875 C6.41825529 11.22285529 6.41825529 11.22285529 6 7 C4.13175498 5.12633977 2.10340318 3.62137329 0 2 C0 1.34 0 0.68 0 0 Z " fill="#0792FE" transform="translate(645,893)"/>
<path d="M0 0 C0.66 0 1.32 0 2 0 C2.36263859 5.8022175 1.25684543 9.63999211 -1 15 C-0.34 15.33 0.32 15.66 1 16 C-0.65 16.33 -2.3 16.66 -4 17 C-3.5413579 14.85967019 -3.047812 13.08815337 -2 11.15625 C-0.89505799 8.77371879 -0.60502654 6.85696748 -0.375 4.25 C-0.30023437 3.45078125 -0.22546875 2.6515625 -0.1484375 1.828125 C-0.09945312 1.22484375 -0.05046875 0.6215625 0 0 Z " fill="#179EFE" transform="translate(961,419)"/>
<path d="M0 0 C4.36514314 0.53482835 6.87894418 2.04384934 10.3125 4.75 C11.19550781 5.42546875 12.07851563 6.1009375 12.98828125 6.796875 C15 9 15 9 15.29296875 11.765625 C15.19628906 12.50296875 15.09960938 13.2403125 15 14 C14.484375 13.29875 13.96875 12.5975 13.4375 11.875 C9.53178845 7.2682633 4.89540038 3.52468827 0 0 Z " fill="#0E98FE" transform="translate(923,322)"/>
<path d="M0 0 C3.465 1.485 3.465 1.485 7 3 C4.80808632 5.19191368 3.88522592 5.27869352 1 6 C0.34 6.66 -0.32 7.32 -1 8 C-1.04241723 5.66705225 -1.04092937 3.33297433 -1 1 C-0.67 0.67 -0.34 0.34 0 0 Z " fill="#0F9BFE" transform="translate(200,242)"/>
<path d="M0 0 C4.82675589 2.41337795 7.69984002 5.86062408 11 10 C8 10 8 10 6.39453125 8.7578125 C5.87246094 8.21898437 5.35039063 7.68015625 4.8125 7.125 C4.28269531 6.59132812 3.75289062 6.05765625 3.20703125 5.5078125 C2 4 2 4 2 2 C1.34 2 0.68 2 0 2 C0 1.34 0 0.68 0 0 Z " fill="#25A3FE" transform="translate(852,137)"/>
<path d="M0 0 C0.66 0 1.32 0 2 0 C2.66 3.3 3.32 6.6 4 10 C3.34 10 2.68 10 2 10 C2 8.68 2 7.36 2 6 C0.68 6 -0.64 6 -2 6 C-1.34 4.02 -0.68 2.04 0 0 Z " fill="#1196FE" transform="translate(417,924)"/>
<path d="M0 0 C3.92734211 3.77024843 7.44406161 7.88470051 11 12 C10.34 12.66 9.68 13.32 9 14 C7.67925885 12.42353449 6.36868776 10.83854469 5.0625 9.25 C4.33160156 8.36828125 3.60070312 7.4865625 2.84765625 6.578125 C1.16962815 4.23669045 0.41264834 2.80338873 0 0 Z " fill="#0C61FD" transform="translate(531,657)"/>
<path d="M0 0 C0.33 0 0.66 0 1 0 C1 2.64 1 5.28 1 8 C-0.65 8 -2.3 8 -4 8 C-3.4021799 4.65220745 -2.20964398 2.57791798 0 0 Z " fill="#0A97FE" transform="translate(460,110)"/>
<path d="M0 0 C0.2475 0.53625 0.495 1.0725 0.75 1.625 C3.06973459 6.03249573 5.96737193 10.0575835 9 14 C8.01 14 7.02 14 6 14 C4.39453125 12.20703125 4.39453125 12.20703125 2.8125 9.8125 C2.28269531 9.03519531 1.75289063 8.25789063 1.20703125 7.45703125 C-0.12994304 4.73548811 -0.23910243 2.99143707 0 0 Z " fill="#149AFE" transform="translate(73,357)"/>
<path d="M0 0 C0.66 0.33 1.32 0.66 2 1 C-3.0940919 7.70459519 -3.0940919 7.70459519 -6.875 8.9375 C-7.57625 8.958125 -8.2775 8.97875 -9 9 C-6 6 -3 3 0 0 Z " fill="#22A4FE" transform="translate(177,128)"/>
<path d="M0 0 C0.33 0 0.66 0 1 0 C1.33 3.3 1.66 6.6 2 10 C-0.64 8.68 -3.28 7.36 -6 6 C-6 5.67 -6 5.34 -6 5 C-4.02 5 -2.04 5 0 5 C0 3.35 0 1.7 0 0 Z " fill="#1799FD" transform="translate(453,54)"/>
<path d="M0 0 C3.63559661 3.43361902 6.36113346 6.7973607 9 11 C8.01 11.495 8.01 11.495 7 12 C5.82455195 10.56967163 4.65989738 9.13046758 3.5 7.6875 C2.8503125 6.88699219 2.200625 6.08648437 1.53125 5.26171875 C0 3 0 3 0 0 Z " fill="#27A3FE" transform="translate(902,189)"/>
<path d="M0 0 C0.66 0.33 1.32 0.66 2 1 C1.04956626 2.33897583 0.08940853 3.67105427 -0.875 5 C-1.40867187 5.7425 -1.94234375 6.485 -2.4921875 7.25 C-2.98976563 7.8275 -3.48734375 8.405 -4 9 C-4.66 9 -5.32 9 -6 9 C-6.33 9.66 -6.66 10.32 -7 11 C-6.40716379 7.60807637 -5.23256811 5.7892243 -2.9375 3.25 C-2.38964844 2.63640625 -1.84179688 2.0228125 -1.27734375 1.390625 C-0.85582031 0.93171875 -0.43429687 0.4728125 0 0 Z " fill="#0B96FE" transform="translate(807,178)"/>
<path d="M0 0 C0.6875 1.6875 0.6875 1.6875 1 4 C-0.4375 6.75 -0.4375 6.75 -2 9 C-1.34 9 -0.68 9 0 9 C0 9.66 0 10.32 0 11 C-1.32 10.67 -2.64 10.34 -4 10 C-2.8905928 6.51329166 -1.73662334 3.22515763 0 0 Z " fill="#1095FE" transform="translate(412,934)"/>
<path d="M0 0 C0.33 0.99 0.66 1.98 1 3 C-0.21484375 4.82421875 -0.21484375 4.82421875 -1.9375 6.6875 C-2.50339844 7.31011719 -3.06929687 7.93273437 -3.65234375 8.57421875 C-4.09707031 9.04472656 -4.54179688 9.51523437 -5 10 C-5.33 9.01 -5.66 8.02 -6 7 C-4.78515625 5.17578125 -4.78515625 5.17578125 -3.0625 3.3125 C-2.49660156 2.68988281 -1.93070313 2.06726563 -1.34765625 1.42578125 C-0.90292969 0.95527344 -0.45820312 0.48476563 0 0 Z " fill="#22A1FE" transform="translate(908,813)"/>
<path d="M0 0 C0.66 0.33 1.32 0.66 2 1 C1.01 3.97 0.02 6.94 -1 10 C-1.66 9.34 -2.32 8.68 -3 8 C-2.64700993 4.55834679 -1.95418308 2.93127462 0 0 Z " fill="#129DFE" transform="translate(141,205)"/>
<path d="M0 0 C0.66 0.99 1.32 1.98 2 3 C0.37660195 4.70884005 -1.29319053 6.37446717 -3 8 C-3.66 8 -4.32 8 -5 8 C-3.62845496 5.04590299 -2.01136276 2.55991624 0 0 Z " fill="#109AFE" transform="translate(799,735)"/>
<path d="M0 0 C0 3.34419152 -0.47519394 4.06840321 -2.375 6.6875 C-2.81585938 7.31011719 -3.25671875 7.93273437 -3.7109375 8.57421875 C-4.13632813 9.04472656 -4.56171875 9.51523437 -5 10 C-5.66 10 -6.32 10 -7 10 C-5.33248852 6.05860922 -2.77289351 3.2107188 0 0 Z " fill="#0894FE" transform="translate(84,574)"/>
<path d="M0 0 C0.99 0.33 1.98 0.66 3 1 C1.7391988 2.03319813 0.46596742 3.05124379 -0.8125 4.0625 C-1.87404297 4.91521484 -1.87404297 4.91521484 -2.95703125 5.78515625 C-3.63121094 6.18605469 -4.30539063 6.58695312 -5 7 C-5.99 6.67 -6.98 6.34 -8 6 C-6.7391988 4.96680187 -5.46596742 3.94875621 -4.1875 2.9375 C-3.47980469 2.36902344 -2.77210938 1.80054688 -2.04296875 1.21484375 C-1.36878906 0.81394531 -0.69460937 0.41304688 0 0 Z " fill="#0593FE" transform="translate(162,301)"/>
<path d="M0 0 C0.66 0.99 1.32 1.98 2 3 C1.01 4.98 0.02 6.96 -1 9 C-1.66 9 -2.32 9 -3 9 C-2.01 6.03 -1.02 3.06 0 0 Z " fill="#0C66FE" transform="translate(437,607)"/>
<path d="M0 0 C0.66 0.33 1.32 0.66 2 1 C1.01 1.33 0.02 1.66 -1 2 C-2.20882096 4.00016466 -2.20882096 4.00016466 -3 6 C-4.32 5.67 -5.64 5.34 -7 5 C-4.69 3.35 -2.38 1.7 0 0 Z " fill="#11CB10" transform="translate(249,288)"/>
<path d="M0 0 C0.66 0.33 1.32 0.66 2 1 C1.25 2.9375 1.25 2.9375 0 5 C-2.125 5.75 -2.125 5.75 -4 6 C-4.33 5.34 -4.66 4.68 -5 4 C-3.35 2.68 -1.7 1.36 0 0 Z " fill="#1DA2FE" transform="translate(838,263)"/>
<path d="M0 0 C4.83256305 0.41421969 6.82679218 2.46413986 10 6 C6.05957221 6 4.91141781 4.53815912 2 2 C1.34 1.34 0.68 0.68 0 0 Z " fill="#189DFE" transform="translate(891,254)"/>
<path d="M0 0 C3.35595828 0.59927826 5.37801226 1.84622436 8 4 C7.67 4.66 7.34 5.32 7 6 C4.36 4.68 1.72 3.36 -1 2 C-0.67 1.34 -0.34 0.68 0 0 Z " fill="#179CFE" transform="translate(837,189)"/>
<path d="M0 0 C3.99996286 1.33332095 4.83782337 3.4957827 7 7 C4 7 4 7 2.61328125 5.6875 C1.40885417 4.125 0.20442708 2.5625 -1 1 C-0.67 0.67 -0.34 0.34 0 0 Z " fill="#1A9EFE" transform="translate(895,182)"/>
<path d="M0 0 C2.5 2.3125 2.5 2.3125 5 5 C5 5.99 5 6.98 5 8 C2.5 5.6875 2.5 5.6875 0 3 C0 2.01 0 1.02 0 0 Z " fill="#24A1FE" transform="translate(108,807)"/>
<path d="M0 0 C1 4 1 4 -0.4375 6.75 C-1.2109375 7.86375 -1.2109375 7.86375 -2 9 C-2.66 8.67 -3.32 8.34 -4 8 C-2.68 5.36 -1.36 2.72 0 0 Z " fill="#0C99FE" transform="translate(947,642)"/>
<path d="M0 0 C0.66 0.99 1.32 1.98 2 3 C1.01 4.98 0.02 6.96 -1 9 C-1.66 9 -2.32 9 -3 9 C-2.01 6.03 -1.02 3.06 0 0 Z " fill="#2AA5FE" transform="translate(50,301)"/>
</svg>
